<svg width="1960" height="227" viewBox="0 0 1960 227" fill="none" xmlns="http://www.w3.org/2000/svg">
<g clip-path="url(#clip0_1944_61)">
<path d="M115.592 88.0135C115.611 93.4113 116.451 98.7751 118.084 103.922C121.806 97.8289 126.586 92.4422 132.202 88.0135C132.209 80.5194 134.516 73.2061 138.814 67.0528C143.113 60.8995 149.198 56.1998 156.255 53.5829C157.612 56.398 159.941 58.6336 162.817 59.8815C165.693 61.1295 168.923 61.3066 171.92 60.3805C174.118 59.7134 176.097 58.4738 177.652 56.7901C179.207 55.1065 180.281 53.0398 180.764 50.8041C184.057 49.7764 186.805 47.4892 188.403 44.4455C190.001 41.4017 190.319 37.8509 189.286 34.5741C188.254 31.2973 185.955 28.563 182.896 26.9726C179.838 25.3822 176.269 25.0661 172.977 26.0938C171.311 24.5198 169.245 23.4289 167.002 22.9391C164.759 22.4493 162.424 22.5793 160.249 23.315C157.254 24.2606 154.702 26.2481 153.059 28.9135C151.417 31.5789 150.794 34.7439 151.304 37.829C140.864 41.4867 131.822 48.2786 125.425 57.2674C119.028 66.2563 115.593 76.9991 115.592 88.0135V88.0135Z" fill="white"/>
<path d="M16.599 88.0129V17.1589H205.908V88.0129C205.909 95.067 203.872 101.973 200.039 107.907C196.207 113.841 190.741 118.554 184.292 121.484C177.844 124.413 170.685 125.436 163.668 124.431C156.652 123.425 150.074 120.433 144.718 115.812C141.173 120.429 138.975 125.93 138.366 131.71C146.369 137.262 155.747 140.526 165.482 141.148C175.218 141.77 184.939 139.727 193.589 135.239C202.24 130.752 209.49 123.992 214.553 115.694C219.616 107.395 222.297 97.8757 222.307 88.1679V0.773926H0V88.0129C0.032819 93.4087 0.868881 98.7699 2.48095 103.922C6.20574 97.8307 10.9856 92.4444 16.599 88.0129V88.0129Z" fill="white"/>
<path d="M160.127 199.496C162.3 200.233 164.635 200.365 166.878 199.877C169.121 199.39 171.188 198.301 172.854 196.729C176.147 197.756 179.715 197.44 182.774 195.85C185.833 194.259 188.131 191.525 189.164 188.248C190.197 184.972 189.879 181.421 188.281 178.377C186.683 175.333 183.935 173.046 180.642 172.018C180.155 169.777 179.072 167.707 177.506 166.025C175.94 164.342 173.95 163.109 171.742 162.453C168.747 161.524 165.516 161.698 162.64 162.944C159.763 164.19 157.434 166.425 156.077 169.24C151.014 167.359 146.427 164.395 142.641 160.558C138.854 156.72 135.961 152.102 134.164 147.03C132.368 141.958 131.712 136.555 132.243 131.203C132.774 125.851 134.48 120.68 137.239 116.056C139.998 111.431 143.744 107.466 148.211 104.44C152.679 101.414 157.76 99.4001 163.095 98.5416C168.43 97.6831 173.89 98.0005 179.088 99.4713C184.286 100.942 189.097 103.531 193.18 107.054C196.732 102.435 198.935 96.9299 199.544 91.1451C191.541 85.5904 182.162 82.3238 172.424 81.7C162.687 81.0762 152.964 83.1191 144.312 87.6068C135.659 92.0945 128.408 98.8555 123.344 107.156C118.281 115.456 115.6 124.978 115.592 134.687C115.629 145.687 119.056 156.412 125.41 165.413C131.765 174.415 140.74 181.26 151.126 185.027C150.63 188.112 151.266 191.272 152.919 193.929C154.572 196.586 157.13 198.562 160.127 199.496Z" fill="white"/>
<path d="M106.904 134.643C106.889 129.25 106.053 123.889 104.423 118.745C100.704 124.838 95.9229 130.221 90.3045 134.643C90.2934 142.134 87.9843 149.442 83.6859 155.591C79.3875 161.74 73.3049 166.436 66.2515 169.052C64.8947 166.237 62.5652 164.002 59.689 162.756C56.8127 161.51 53.5818 161.336 50.587 162.265C48.3806 162.924 46.3917 164.159 44.8266 165.841C43.2615 167.523 42.1774 169.591 41.6868 171.831C38.3939 172.858 35.6461 175.145 34.0479 178.189C32.4497 181.233 32.132 184.784 33.1647 188.061C34.1975 191.337 36.496 194.072 39.5547 195.662C42.6133 197.252 46.1816 197.569 49.4745 196.541C51.1377 198.118 53.2037 199.211 55.4478 199.701C57.6918 200.191 60.0279 200.059 62.2019 199.32C65.2028 198.385 67.7646 196.406 69.4177 193.744C71.0708 191.082 71.7044 187.917 71.2023 184.828C81.6289 181.15 90.657 174.353 97.0487 165.368C103.44 156.384 106.883 145.651 106.904 134.643V134.643Z" fill="white"/>
<path d="M71.2022 37.8291C71.7493 34.7327 71.135 31.5442 69.4759 28.8687C67.8168 26.1932 65.2283 24.217 62.2017 23.3151C60.0184 22.6577 57.7023 22.5679 55.4742 23.0544C53.2462 23.5409 51.1805 24.5873 49.4744 26.0939C46.1815 25.0662 42.6132 25.3823 39.5545 26.9727C36.4958 28.5631 34.1973 31.2974 33.1646 34.5742C32.1319 37.851 32.4496 41.4018 34.0477 44.4455C35.6459 47.4893 38.3937 49.7765 41.6866 50.8042C42.2852 53.4299 43.6892 55.8055 45.7042 57.6023C47.7193 59.3991 50.2457 60.5282 52.9339 60.8334C55.6221 61.1386 58.3392 60.6048 60.7092 59.3059C63.0791 58.0069 64.9848 56.007 66.1624 53.583C71.2264 55.4628 75.8142 58.4256 79.602 62.2625C83.3897 66.0993 86.2851 70.7166 88.0839 75.7885C89.8826 80.8604 90.5408 86.2633 90.0121 91.616C89.4834 96.9687 87.7806 102.141 85.0239 106.767C82.2672 111.393 78.5238 115.361 74.0578 118.391C69.5919 121.42 64.5122 123.438 59.1772 124.3C53.8422 125.163 48.382 124.85 43.1819 123.383C37.9818 121.917 33.1685 119.333 29.0816 115.813C25.4014 120.354 23.1835 125.895 22.7179 131.711C28.9784 136.035 36.0951 138.978 43.5914 140.344C51.0877 141.709 58.7906 141.465 66.1845 139.628C73.5784 137.791 80.4926 134.404 86.4642 129.692C92.4358 124.981 97.3271 119.054 100.81 112.309C104.294 105.564 106.289 98.1563 106.662 90.5819C107.036 83.0074 105.779 75.441 102.975 68.3891C100.172 61.3373 95.887 54.9628 90.4074 49.6924C84.9278 44.4219 78.3799 40.3772 71.2022 37.8291V37.8291Z" fill="white"/>
<path d="M220.026 118.901C216.301 124.989 211.521 130.371 205.908 134.799V205.653H16.599V134.799C16.5955 127.744 18.6314 120.836 22.4638 114.901C26.2962 108.965 31.7633 104.252 38.2132 101.323C44.6632 98.3937 51.8236 97.3725 58.8406 98.381C65.8576 99.3895 72.435 102.385 77.7884 107.011C81.3407 102.392 83.5428 96.8866 84.1521 91.1018C76.1489 85.5349 66.7651 82.2581 57.021 81.6279C47.277 80.9977 37.5458 83.0381 28.8858 87.5273C20.2258 92.0164 12.9685 98.7825 7.90306 107.09C2.83764 115.397 0.158061 124.927 0.155731 134.644V226.619H222.507V134.799C222.475 129.407 221.639 124.049 220.026 118.901Z" fill="white"/>
<path d="M270.717 43.3144H309.304L345.344 141.838H345.932L381.58 43.3144H420.363V181.992H395.879V70.5406H395.487L353.375 181.992H336.138L294.613 70.5406H294.221V181.992H270.717V43.3144Z" fill="white"/>
<path d="M495.129 43.3144H516.479L576.22 181.992H548.014L535.087 150.261H474.954L462.418 181.992H434.8L495.129 43.3144ZM526.469 129.106L505.118 72.6952L483.377 129.106H526.469Z" fill="white"/>
<path d="M661.393 72.3035C658.782 68.9083 655.06 66.1008 650.229 63.8809C645.528 61.5305 640.761 60.3552 635.93 60.3552C633.057 60.3552 630.184 60.747 627.312 61.5305C624.439 62.1834 621.827 63.2933 619.477 64.8603C617.126 66.2967 615.167 68.2554 613.601 70.7365C612.164 73.0869 611.446 75.9597 611.446 79.3548C611.446 82.4888 612.099 85.1657 613.405 87.3856C614.71 89.6055 616.473 91.4989 618.693 93.0659C621.044 94.6329 623.851 96.004 627.116 97.1792C630.38 98.3544 633.971 99.5297 637.889 100.705C642.328 102.141 646.899 103.774 651.6 105.602C656.431 107.43 660.806 109.846 664.723 112.849C668.771 115.852 672.036 119.639 674.517 124.21C677.128 128.78 678.434 134.46 678.434 141.25C678.434 148.694 677.063 155.223 674.321 160.838C671.579 166.322 667.922 170.892 663.352 174.549C658.782 178.205 653.428 180.947 647.29 182.775C641.153 184.603 634.689 185.517 627.899 185.517C618.889 185.517 610.075 183.885 601.456 180.621C592.838 177.226 585.787 172.263 580.302 165.734L597.931 149.281C601.326 153.982 605.831 157.704 611.446 160.446C617.191 163.188 622.806 164.559 628.291 164.559C631.164 164.559 634.102 164.233 637.105 163.58C640.108 162.796 642.785 161.556 645.136 159.858C647.617 158.161 649.576 156.071 651.012 153.59C652.579 150.979 653.363 147.779 653.363 143.993C653.363 140.336 652.514 137.333 650.816 134.982C649.119 132.501 646.833 130.412 643.961 128.715C641.088 126.886 637.693 125.319 633.775 124.014C629.858 122.708 625.745 121.337 621.435 119.9C617.257 118.595 613.078 117.028 608.9 115.199C604.721 113.371 600.934 110.956 597.539 107.952C594.274 104.949 591.598 101.293 589.508 96.9833C587.419 92.5436 586.374 87.0591 586.374 80.5301C586.374 73.4787 587.811 67.4066 590.683 62.314C593.687 57.2213 597.539 53.0427 602.24 49.7782C607.071 46.383 612.491 43.902 618.497 42.335C624.635 40.6375 630.837 39.7887 637.105 39.7887C644.157 39.7887 651.273 41.0292 658.455 43.5103C665.768 45.9913 672.101 49.7129 677.455 54.675L661.393 72.3035Z" fill="white"/>
<path d="M803.989 75.8291C800.333 70.867 795.567 67.2761 789.691 65.0562C783.814 62.7057 778.069 61.5305 772.454 61.5305C765.272 61.5305 758.743 62.8363 752.867 65.4479C746.99 68.0596 741.898 71.6505 737.589 76.2209C733.41 80.7912 730.145 86.1451 727.795 92.2824C725.575 98.4197 724.465 105.079 724.465 112.261C724.465 119.835 725.575 126.756 727.795 133.024C730.015 139.292 733.149 144.711 737.197 149.281C741.375 153.721 746.338 157.181 752.083 159.662C757.829 162.143 764.292 163.384 771.474 163.384C778.918 163.384 785.512 161.948 791.257 159.075C797.003 156.071 801.639 152.154 805.164 147.322L824.947 161.229C818.81 168.934 811.302 174.94 802.422 179.25C793.543 183.428 783.161 185.517 771.279 185.517C760.44 185.517 750.451 183.755 741.31 180.229C732.3 176.573 724.53 171.545 718.001 165.147C711.472 158.618 706.38 150.913 702.723 142.034C699.067 133.024 697.239 123.1 697.239 112.261C697.239 101.162 699.132 91.1724 702.919 82.2929C706.837 73.2828 712.125 65.6438 718.785 59.3759C725.575 53.108 733.54 48.2765 742.681 44.8814C751.822 41.4862 761.746 39.7887 772.454 39.7887C776.894 39.7887 781.529 40.2457 786.361 41.1598C791.192 41.9433 795.828 43.2491 800.268 45.0772C804.707 46.7748 808.886 48.9294 812.803 51.541C816.721 54.1526 820.051 57.2866 822.793 60.9429L803.989 75.8291Z" fill="white"/>
<path d="M832.069 112.261C832.069 101.162 833.897 91.1724 837.553 82.2929C841.34 73.2828 846.498 65.6438 853.027 59.3759C859.687 53.108 867.522 48.2765 876.532 44.8814C885.672 41.4862 895.597 39.7887 906.304 39.7887C917.143 39.7887 927.132 41.4862 936.273 44.8814C945.413 48.2765 953.314 53.108 959.973 59.3759C966.633 65.6438 971.791 73.2828 975.447 82.2929C979.234 91.1724 981.127 101.162 981.127 112.261C981.127 123.1 979.234 133.024 975.447 142.034C971.791 150.913 966.633 158.618 959.973 165.147C953.314 171.545 945.413 176.573 936.273 180.229C927.132 183.755 917.143 185.517 906.304 185.517C895.597 185.517 885.672 183.755 876.532 180.229C867.522 176.573 859.687 171.545 853.027 165.147C846.498 158.618 841.34 150.913 837.553 142.034C833.897 133.024 832.069 123.1 832.069 112.261ZM858.903 112.261C858.903 119.704 860.013 126.56 862.233 132.828C864.584 138.965 867.848 144.319 872.027 148.889C876.336 153.46 881.363 157.051 887.109 159.662C892.985 162.143 899.449 163.384 906.5 163.384C913.552 163.384 920.015 162.143 925.891 159.662C931.768 157.051 936.795 153.46 940.974 148.889C945.283 144.319 948.547 138.965 950.767 132.828C953.118 126.56 954.293 119.704 954.293 112.261C954.293 105.079 953.118 98.4197 950.767 92.2824C948.547 86.1451 945.348 80.7912 941.17 76.2209C936.991 71.6505 931.964 68.0596 926.087 65.4479C920.211 62.8363 913.682 61.5305 906.5 61.5305C899.318 61.5305 892.789 62.8363 886.913 65.4479C881.167 68.0596 876.205 71.6505 872.027 76.2209C867.848 80.7912 864.584 86.1451 862.233 92.2824C860.013 98.4197 858.903 105.079 858.903 112.261Z" fill="white"/>
<path d="M1027.77 64.8603H985.269V43.3144H1094.96V64.8603H1052.45V181.992H1027.77V64.8603Z" fill="white"/>
<path d="M1278.2 174.745C1271.15 178.14 1263.38 180.751 1254.89 182.579C1246.53 184.538 1236.87 185.517 1225.9 185.517C1214.67 185.517 1204.42 183.755 1195.15 180.229C1185.88 176.573 1177.91 171.545 1171.25 165.147C1164.59 158.618 1159.37 150.913 1155.58 142.034C1151.93 133.024 1150.1 123.1 1150.1 112.261C1150.1 101.162 1151.99 91.1724 1155.78 82.2929C1159.7 73.2828 1164.99 65.6438 1171.65 59.3759C1178.44 53.108 1186.4 48.2765 1195.54 44.8814C1204.68 41.4862 1214.61 39.7887 1225.31 39.7887C1236.41 39.7887 1246.53 41.421 1255.67 44.6855C1264.95 47.8194 1272.39 51.998 1278 57.2213L1260.96 75.6333C1257.44 71.7158 1252.48 68.386 1246.08 65.6438C1239.81 62.9016 1232.95 61.5305 1225.51 61.5305C1218.2 61.5305 1211.54 62.8363 1205.53 65.4479C1199.65 68.0596 1194.63 71.6505 1190.45 76.2209C1186.27 80.7912 1183.01 86.1451 1180.66 92.2824C1178.44 98.4197 1177.33 105.079 1177.33 112.261C1177.33 119.704 1178.44 126.56 1180.66 132.828C1183.01 138.965 1186.27 144.319 1190.45 148.889C1194.76 153.46 1199.92 157.051 1205.92 159.662C1212.06 162.143 1218.98 163.384 1226.69 163.384C1237.26 163.384 1246.47 161.752 1254.3 158.487V123.23H1225.12V102.859H1278.2V174.745Z" fill="white"/>
<path d="M1352.48 43.3144H1373.83L1433.57 181.992H1405.36L1392.44 150.261H1332.3L1319.77 181.992H1292.15L1352.48 43.3144ZM1383.82 129.106L1362.47 72.6952L1340.73 129.106H1383.82Z" fill="white"/>
<path d="M1448.03 43.3144H1486.62L1522.66 141.838H1523.25L1558.9 43.3144H1597.68V181.992H1573.2V70.5406H1572.8L1530.69 181.992H1513.45L1471.93 70.5406H1471.54V181.992H1448.03V43.3144Z" fill="white"/>
<path d="M1628.96 43.3144H1653.64V181.992H1628.96V43.3144Z" fill="white"/>
<path d="M1684.98 43.3144H1717.69L1782.14 147.127H1782.53V43.3144H1807.21V181.992H1775.87L1710.06 74.8498H1709.66V181.992H1684.98V43.3144Z" fill="white"/>
<path d="M1960 174.745C1952.95 178.14 1945.18 180.751 1936.69 182.579C1928.33 184.538 1918.67 185.517 1907.7 185.517C1896.47 185.517 1886.22 183.755 1876.95 180.229C1867.68 176.573 1859.71 171.545 1853.05 165.147C1846.39 158.618 1841.17 150.913 1837.38 142.034C1833.73 133.024 1831.9 123.1 1831.9 112.261C1831.9 101.162 1833.79 91.1724 1837.58 82.2929C1841.5 73.2828 1846.79 65.6438 1853.45 59.3759C1860.24 53.108 1868.2 48.2765 1877.34 44.8814C1886.48 41.4862 1896.41 39.7887 1907.11 39.7887C1918.21 39.7887 1928.33 41.421 1937.47 44.6855C1946.75 47.8194 1954.19 51.998 1959.8 57.2213L1942.76 75.6333C1939.24 71.7158 1934.28 68.386 1927.88 65.6438C1921.61 62.9016 1914.75 61.5305 1907.31 61.5305C1900 61.5305 1893.34 62.8363 1887.33 65.4479C1881.46 68.0596 1876.43 71.6505 1872.25 76.2209C1868.07 80.7912 1864.81 86.1451 1862.46 92.2824C1860.24 98.4197 1859.13 105.079 1859.13 112.261C1859.13 119.704 1860.24 126.56 1862.46 132.828C1864.81 138.965 1868.07 144.319 1872.25 148.889C1876.56 153.46 1881.72 157.051 1887.72 159.662C1893.86 162.143 1900.78 163.384 1908.49 163.384C1919.06 163.384 1928.27 161.752 1936.1 158.487V123.23H1906.92V102.859H1960V174.745Z" fill="white"/>
</g>
<defs>
<clipPath id="clip0_1944_61">
<rect width="1960" height="225.844" fill="white" transform="translate(0 0.773926)"/>
</clipPath>
</defs>
</svg>
