<svg xmlns="http://www.w3.org/2000/svg" viewBox="0 0 24 24" width="24" height="24" color="#5cf9ed" fill="#5cf9ed">
    <defs />
    <path fill="currentColor" d="M17.969,5.25 L18.032,5.25 C18.705,5.25 19.256,5.25 19.703,5.287 C20.166,5.324 20.585,5.405 20.976,5.604 C21.587,5.916 22.084,6.413 22.396,7.025 C22.595,7.415 22.676,7.834 22.713,8.297 C22.75,8.744 22.75,9.295 22.75,9.969 L22.75,10.031 C22.75,10.705 22.75,11.255 22.713,11.703 C22.676,12.166 22.595,12.585 22.396,12.976 C22.194,13.371 21.915,13.719 21.577,14 C21.915,14.281 22.194,14.629 22.396,15.024 C22.595,15.415 22.676,15.834 22.713,16.297 C22.75,16.744 22.75,17.295 22.75,17.969 L22.75,18.031 C22.75,18.705 22.75,19.256 22.713,19.703 C22.676,20.166 22.595,20.585 22.396,20.976 C22.084,21.587 21.587,22.084 20.976,22.396 C20.585,22.595 20.166,22.676 19.703,22.713 C19.256,22.75 18.705,22.75 18.031,22.75 L17.969,22.75 C17.295,22.75 16.744,22.75 16.297,22.713 C15.834,22.676 15.415,22.595 15.024,22.396 C14.629,22.194 14.281,21.915 14,21.577 C13.719,21.915 13.371,22.194 12.976,22.396 C12.585,22.595 12.166,22.676 11.703,22.713 C11.255,22.75 10.705,22.75 10.031,22.75 L9.968,22.75 C9.295,22.75 8.744,22.75 8.297,22.713 C7.834,22.676 7.415,22.595 7.025,22.396 C6.413,22.084 5.916,21.587 5.604,20.976 C5.405,20.585 5.324,20.166 5.287,19.703 C5.25,19.256 5.25,18.705 5.25,18.032 L5.25,17.968 C5.25,17.295 5.25,16.744 5.287,16.297 C5.324,15.834 5.405,15.415 5.604,15.024 C5.916,14.413 6.413,13.916 7.025,13.604 C7.415,13.405 7.834,13.324 8.297,13.287 C8.744,13.25 9.295,13.25 9.969,13.25 L10.031,13.25 C10.705,13.25 11.255,13.25 11.703,13.287 C12.166,13.324 12.585,13.405 12.976,13.604 C13.371,13.806 13.719,14.085 14,14.423 C14.128,14.269 14.269,14.128 14.423,14 C14.085,13.719 13.806,13.371 13.604,12.976 C13.405,12.585 13.324,12.166 13.287,11.703 C13.25,11.255 13.25,10.705 13.25,10.031 L13.25,9.969 C13.25,9.295 13.25,8.744 13.287,8.297 C13.324,7.834 13.405,7.415 13.604,7.025 C13.916,6.413 14.413,5.916 15.024,5.604 C15.415,5.405 15.834,5.324 16.297,5.287 C16.744,5.25 17.295,5.25 17.968,5.25 L17.969,5.25 Z M5.969,1.25 L6.032,1.25 C6.705,1.25 7.256,1.25 7.703,1.287 C8.166,1.324 8.585,1.405 8.975,1.604 C9.587,1.916 10.084,2.413 10.396,3.025 C10.595,3.415 10.676,3.834 10.714,4.297 C10.75,4.744 10.75,5.295 10.75,5.969 L10.75,6.031 C10.75,6.705 10.75,7.256 10.714,7.703 C10.676,8.166 10.595,8.585 10.396,8.975 C10.084,9.587 9.587,10.084 8.975,10.396 C8.585,10.595 8.166,10.676 7.703,10.713 C7.255,10.75 6.705,10.75 6.031,10.75 L5.969,10.75 C5.295,10.75 4.744,10.75 4.297,10.713 C3.834,10.676 3.415,10.595 3.025,10.396 C2.413,10.084 1.916,9.587 1.604,8.975 C1.405,8.585 1.324,8.166 1.287,7.703 C1.25,7.256 1.25,6.705 1.25,6.032 L1.25,5.968 C1.25,5.295 1.25,4.744 1.287,4.297 C1.324,3.834 1.405,3.415 1.604,3.025 C1.916,2.413 2.413,1.916 3.025,1.604 C3.415,1.405 3.834,1.324 4.297,1.287 C4.744,1.25 5.295,1.25 5.968,1.25 L5.969,1.25 Z M18,13.25 C18.712,13.25 19.202,13.249 19.581,13.218 C19.951,13.188 20.15,13.133 20.295,13.059 C20.624,12.892 20.892,12.624 21.059,12.295 C21.133,12.15 21.188,11.951 21.218,11.581 C21.249,11.202 21.25,10.712 21.25,10 C21.25,9.288 21.249,8.798 21.218,8.419 C21.188,8.049 21.133,7.85 21.059,7.706 C20.892,7.376 20.624,7.109 20.295,6.941 C20.15,6.867 19.951,6.812 19.581,6.782 C19.202,6.751 18.712,6.75 18,6.75 C17.288,6.75 16.798,6.751 16.419,6.782 C16.049,6.812 15.85,6.867 15.705,6.941 C15.376,7.109 15.108,7.376 14.941,7.706 C14.867,7.85 14.812,8.049 14.782,8.419 C14.751,8.798 14.75,9.288 14.75,10 C14.75,10.712 14.751,11.202 14.782,11.581 C14.812,11.951 14.867,12.15 14.941,12.295 C15.108,12.624 15.376,12.892 15.705,13.059 C15.85,13.133 16.049,13.188 16.419,13.218 C16.798,13.249 17.288,13.25 18,13.25 Z M14.75,18.061 C14.75,18.741 14.752,19.213 14.782,19.581 C14.812,19.951 14.867,20.15 14.941,20.295 C15.108,20.624 15.376,20.892 15.705,21.059 C15.85,21.133 16.049,21.188 16.419,21.218 C16.798,21.249 17.288,21.25 18,21.25 C18.712,21.25 19.202,21.249 19.581,21.218 C19.951,21.188 20.15,21.133 20.295,21.059 C20.624,20.892 20.892,20.624 21.059,20.295 C21.133,20.15 21.188,19.951 21.218,19.581 C21.249,19.202 21.25,18.712 21.25,18 C21.25,17.288 21.249,16.798 21.218,16.419 C21.188,16.049 21.133,15.85 21.059,15.705 C20.892,15.376 20.624,15.108 20.295,14.941 C20.15,14.867 19.951,14.812 19.581,14.782 C19.202,14.751 18.712,14.75 18,14.75 C17.288,14.75 16.798,14.751 16.419,14.782 C16.049,14.812 15.85,14.867 15.705,14.941 C15.376,15.108 15.108,15.376 14.941,15.705 C14.867,15.85 14.812,16.049 14.782,16.419 C14.752,16.788 14.75,17.26 14.75,17.94 L14.75,18.061 Z M13.218,16.419 C13.188,16.049 13.133,15.85 13.059,15.705 C12.892,15.376 12.624,15.108 12.295,14.941 C12.15,14.867 11.951,14.812 11.581,14.782 C11.202,14.751 10.712,14.75 10,14.75 C9.288,14.75 8.798,14.751 8.419,14.782 C8.049,14.812 7.85,14.867 7.706,14.941 C7.376,15.108 7.109,15.376 6.941,15.705 C6.867,15.85 6.812,16.049 6.782,16.419 C6.751,16.798 6.75,17.288 6.75,18 C6.75,18.712 6.751,19.202 6.782,19.581 C6.812,19.951 6.867,20.15 6.941,20.295 C7.109,20.624 7.376,20.892 7.706,21.059 C7.85,21.133 8.049,21.188 8.419,21.218 C8.798,21.249 9.288,21.25 10,21.25 C10.712,21.25 11.202,21.249 11.581,21.218 C11.951,21.188 12.15,21.133 12.295,21.059 C12.624,20.892 12.892,20.624 13.059,20.295 C13.133,20.15 13.188,19.951 13.218,19.581 C13.248,19.213 13.25,18.741 13.25,18.061 L13.25,17.939 C13.25,17.259 13.248,16.787 13.218,16.419 Z M3.706,2.941 C3.376,3.109 3.109,3.376 2.941,3.706 C2.867,3.85 2.812,4.049 2.782,4.419 C2.751,4.798 2.75,5.288 2.75,6 C2.75,6.712 2.751,7.202 2.782,7.581 C2.812,7.951 2.867,8.15 2.941,8.294 C3.109,8.624 3.376,8.891 3.706,9.059 C3.85,9.133 4.049,9.188 4.419,9.218 C4.798,9.249 5.288,9.25 6,9.25 C6.712,9.25 7.202,9.249 7.581,9.218 C7.951,9.188 8.15,9.133 8.294,9.059 C8.624,8.891 8.891,8.624 9.059,8.294 C9.133,8.15 9.188,7.951 9.218,7.581 C9.249,7.202 9.25,6.712 9.25,6 C9.25,5.288 9.249,4.798 9.218,4.419 C9.188,4.049 9.133,3.85 9.059,3.706 C8.891,3.376 8.624,3.109 8.294,2.941 C8.15,2.867 7.951,2.812 7.581,2.782 C7.202,2.751 6.712,2.75 6,2.75 C5.288,2.75 4.798,2.751 4.419,2.782 C4.049,2.812 3.85,2.867 3.706,2.941 Z" />
</svg>