<svg xmlns="http://www.w3.org/2000/svg" viewBox="0 0 24 24" width="24" height="24" color="#000000" fill="none">
    <defs />
    <path fill="currentColor" d="M22.75,12 C22.75,17.936 17.938,22.749 12.002,22.75 L11.998,22.75 C6.062,22.749 1.25,17.936 1.25,12 C1.25,6.063 6.063,1.25 12,1.25 C17.937,1.25 22.75,6.063 22.75,12 Z M12,18.25 C14.297,18.25 16.304,17.011 17.39,15.165 C17.397,15.151 17.404,15.138 17.412,15.125 C17.42,15.111 17.428,15.098 17.437,15.085 C17.954,14.175 18.25,13.122 18.25,12 C18.25,10.87 17.95,9.811 17.426,8.896 C17.422,8.889 17.418,8.882 17.413,8.875 C17.41,8.868 17.406,8.861 17.402,8.855 C16.319,6.998 14.305,5.75 12,5.75 C9.694,5.75 7.68,6.999 6.596,8.857 L6.587,8.875 C6.583,8.881 6.579,8.887 6.576,8.893 C6.05,9.808 5.75,10.869 5.75,12 C5.75,13.123 6.046,14.176 6.564,15.087 C6.572,15.099 6.58,15.112 6.588,15.125 C6.595,15.138 6.602,15.151 6.609,15.164 C7.695,17.01 9.703,18.25 12,18.25 Z M12.75,8 L12.75,8.583 L13.562,8.583 C14.539,8.583 15.25,9.413 15.25,10.333 L15.25,11 C15.25,11.362 15.14,11.711 14.946,12 C15.14,12.289 15.25,12.638 15.25,13 L15.25,13.667 C15.25,14.587 14.539,15.417 13.562,15.417 L12.75,15.417 L12.75,16 C12.75,16.414 12.414,16.75 12,16.75 C11.586,16.75 11.25,16.414 11.25,16 L11.25,15.417 L9.5,15.417 C9.086,15.417 8.75,15.081 8.75,14.667 C8.75,14.252 9.086,13.917 9.5,13.917 L9.688,13.917 L9.688,10.083 L9.5,10.083 C9.086,10.083 8.75,9.748 8.75,9.333 C8.75,8.919 9.086,8.583 9.5,8.583 L11.25,8.583 L11.25,8 C11.25,7.586 11.586,7.25 12,7.25 C12.414,7.25 12.75,7.586 12.75,8 Z M3.639,8.039 C3.069,9.24 2.75,10.583 2.75,12 C2.75,13.418 3.069,14.761 3.639,15.962 L4.943,15.209 C4.498,14.231 4.25,13.144 4.25,12 C4.25,10.856 4.498,9.77 4.943,8.792 Z M19.057,8.792 C19.502,9.77 19.75,10.856 19.75,12 C19.75,13.144 19.502,14.231 19.057,15.208 L20.361,15.962 C20.931,14.761 21.25,13.418 21.25,12 C21.25,10.583 20.931,9.24 20.361,8.039 Z M19.61,6.741 C18.074,4.522 15.594,3.008 12.75,2.78 L12.75,4.286 C15.039,4.506 17.037,5.721 18.306,7.494 Z M4.39,6.741 L5.694,7.494 C6.963,5.721 8.961,4.506 11.25,4.286 L11.25,2.78 C8.406,3.008 5.926,4.522 4.39,6.741 Z M12.75,19.714 L12.75,21.22 C15.593,20.992 18.074,19.478 19.61,17.26 L18.306,16.507 C17.037,18.279 15.039,19.494 12.75,19.714 Z M11.25,21.22 L11.25,19.714 C8.961,19.494 6.964,18.279 5.694,16.507 L4.39,17.26 C5.926,19.478 8.407,20.992 11.25,21.22 Z M11.188,11.25 L13.562,11.25 C13.621,11.25 13.75,11.184 13.75,11 L13.75,10.333 C13.75,10.149 13.621,10.083 13.562,10.083 L11.188,10.083 Z M11.188,12.75 L11.188,13.917 L13.562,13.917 C13.621,13.917 13.75,13.851 13.75,13.667 L13.75,13 C13.75,12.816 13.621,12.75 13.562,12.75 Z" />
</svg>