<svg xmlns="http://www.w3.org/2000/svg" viewBox="0 0 24 24" width="24" height="24" color="#5cf9ed" fill="#5cf9ed">
    <defs />
    <path fill="currentColor" d="M14.042,2.042 L16.113,2.58 C17.46,2.929 18.542,3.21 19.363,3.541 C20.211,3.884 20.888,4.322 21.323,5.052 C21.76,5.785 21.815,6.581 21.696,7.473 C21.582,8.331 21.291,9.382 20.931,10.683 L20.931,10.683 L19.847,14.601 C19.487,15.902 19.196,16.953 18.852,17.751 C18.551,18.449 18.181,19.023 17.627,19.436 C17.504,20.317 17.244,21.06 16.652,21.652 C16.05,22.254 15.292,22.513 14.392,22.633 C13.525,22.75 12.422,22.75 11.055,22.75 L8.945,22.75 C7.578,22.75 6.475,22.75 5.608,22.633 C4.708,22.513 3.95,22.254 3.348,21.652 C2.746,21.05 2.488,20.292 2.367,19.392 C2.25,18.525 2.25,17.423 2.25,16.055 L2.25,10.945 C2.25,9.577 2.25,8.475 2.367,7.608 C2.488,6.708 2.746,5.95 3.348,5.348 C3.95,4.746 4.708,4.488 5.608,4.367 C5.862,4.332 6.135,4.308 6.43,4.291 C6.839,3.102 7.325,2.186 8.271,1.657 C9.014,1.241 9.819,1.188 10.732,1.302 C11.613,1.412 12.695,1.693 14.042,2.042 Z M5.808,5.853 C5.074,5.952 4.686,6.132 4.409,6.409 C4.132,6.686 3.952,7.074 3.853,7.808 C3.752,8.563 3.75,9.565 3.75,11 L3.75,16 C3.75,17.435 3.752,18.437 3.853,19.192 C3.952,19.926 4.132,20.314 4.409,20.591 C4.686,20.868 5.074,21.048 5.808,21.147 C6.563,21.248 7.565,21.25 9,21.25 L11,21.25 C12.435,21.25 13.436,21.248 14.192,21.147 C14.926,21.048 15.314,20.868 15.591,20.591 C15.868,20.314 16.048,19.926 16.147,19.192 C16.248,18.437 16.25,17.435 16.25,16 L16.25,11 C16.25,9.565 16.248,8.563 16.147,7.808 C16.048,7.074 15.868,6.686 15.591,6.409 C15.314,6.132 14.926,5.952 14.192,5.853 C13.436,5.752 12.435,5.75 11,5.75 L9,5.75 C7.565,5.75 6.563,5.752 5.808,5.853 Z M7.391,10.624 C8.412,10.044 9.368,10.219 10,10.604 C10.631,10.219 11.587,10.044 12.609,10.624 C13.439,11.096 13.871,12.063 13.72,13.106 C13.568,14.151 12.856,15.227 11.522,16.142 L11.46,16.184 C11.047,16.468 10.638,16.75 10,16.75 C9.362,16.75 8.952,16.468 8.539,16.184 L8.478,16.142 C7.143,15.227 6.431,14.151 6.28,13.106 C6.129,12.063 6.56,11.096 7.391,10.624 Z M18.416,14.147 L19.47,10.337 C19.849,8.969 20.11,8.018 20.209,7.275 C20.305,6.556 20.23,6.148 20.034,5.82 C19.836,5.488 19.501,5.215 18.801,4.932 C18.082,4.642 17.095,4.384 15.684,4.018 L13.717,3.508 C12.306,3.142 11.319,2.887 10.546,2.791 C9.793,2.697 9.355,2.769 9.003,2.966 C8.633,3.173 8.348,3.521 8.047,4.251 C8.331,4.25 8.628,4.25 8.939,4.25 L11.055,4.25 C12.423,4.25 13.525,4.25 14.392,4.367 C15.292,4.488 16.05,4.746 16.652,5.348 C17.254,5.95 17.513,6.708 17.633,7.608 C17.75,8.475 17.75,9.578 17.75,10.945 L17.75,16.055 L17.75,16.424 C17.95,15.827 18.156,15.085 18.416,14.147 Z M8.131,11.929 C7.906,12.056 7.69,12.378 7.764,12.891 C7.838,13.403 8.225,14.15 9.326,14.905 C9.574,15.075 9.695,15.156 9.797,15.204 C9.867,15.238 9.916,15.25 10,15.25 C10.084,15.25 10.132,15.238 10.202,15.204 C10.304,15.156 10.425,15.075 10.674,14.905 C11.775,14.15 12.161,13.403 12.235,12.891 C12.309,12.378 12.093,12.056 11.868,11.929 C11.347,11.632 10.955,11.762 10.738,11.913 L10.724,11.922 C10.65,11.974 10.568,12.031 10.498,12.074 C10.459,12.097 10.402,12.13 10.335,12.158 C10.272,12.184 10.153,12.227 10,12.227 C9.847,12.227 9.727,12.184 9.665,12.158 C9.597,12.13 9.54,12.097 9.502,12.074 C9.431,12.031 9.349,11.974 9.275,11.922 L9.261,11.913 C9.044,11.762 8.653,11.632 8.131,11.929 Z" />
</svg>