<svg xmlns="http://www.w3.org/2000/svg" viewBox="0 0 24 24" width="24" height="24" color="#5cf9ed" fill="#5cf9ed">
    <defs />
    <path fill="currentColor" d="M16.381,2.646 C15.447,3.197 14.824,3.801 14.421,4.413 C13.563,5.716 13.607,7.223 14.14,8.713 C14.356,9.315 14.646,9.898 14.973,10.438 C15.462,10.315 15.973,10.25 16.5,10.25 C19.952,10.25 22.75,13.048 22.75,16.5 C22.75,19.952 19.952,22.75 16.5,22.75 C13.048,22.75 10.25,19.952 10.25,16.5 C10.25,14.113 11.588,12.039 13.555,10.986 C13.235,10.431 12.949,9.837 12.728,9.218 C12.276,7.954 12.077,6.538 12.454,5.159 C11.531,5.49 10.51,5.988 9.656,6.701 C8.872,7.356 8.226,8.192 7.928,9.273 C9.043,9.37 10.073,9.77 10.937,10.391 C11.274,10.632 11.351,11.101 11.109,11.437 C10.868,11.774 10.399,11.851 10.063,11.609 C9.398,11.132 8.608,10.83 7.752,10.764 C7.759,11.109 7.798,11.475 7.871,11.86 C7.948,12.267 7.681,12.66 7.274,12.737 C6.867,12.814 6.474,12.547 6.397,12.14 C6.315,11.707 6.269,11.292 6.255,10.895 C4.248,11.414 2.75,13.27 2.75,15.5 C2.75,18.137 4.844,20.25 7.396,20.25 C7.992,20.25 8.56,20.136 9.081,19.928 C9.466,19.775 9.902,19.963 10.056,20.348 C10.209,20.733 10.021,21.169 9.636,21.322 C8.941,21.598 8.186,21.75 7.396,21.75 C3.988,21.75 1.25,18.938 1.25,15.5 C1.25,12.414 3.456,9.832 6.373,9.336 C6.69,7.716 7.592,6.471 8.695,5.55 C10.202,4.291 12.078,3.631 13.347,3.332 C13.887,2.6 14.636,1.934 15.619,1.354 C15.976,1.144 16.435,1.262 16.646,1.619 C16.857,1.976 16.738,2.436 16.381,2.646 Z M14.383,12.247 C12.822,13.025 11.75,14.637 11.75,16.5 C11.75,19.123 13.877,21.25 16.5,21.25 C19.123,21.25 21.25,19.123 21.25,16.5 C21.25,13.877 19.123,11.75 16.5,11.75 C16.305,11.75 16.113,11.762 15.924,11.785 C16.131,12.039 16.338,12.272 16.539,12.478 C16.827,12.776 16.819,13.251 16.522,13.539 C16.224,13.827 15.75,13.819 15.461,13.522 C15.113,13.162 14.743,12.731 14.383,12.247 Z" />
</svg>