<svg xmlns="http://www.w3.org/2000/svg" viewBox="0 0 24 24" width="24" height="24" color="#c706fd" fill="#c706fd">
    <path fill-rule="evenodd" clip-rule="evenodd" d="M7.123 18.25H16.863L16.873 18.23C17.983 18.23 18.663 18.2299 19.233 17.8199C19.823 17.4099 20.043 16.78 20.413 15.72L22.663 9.30005C22.873 8.66005 22.703 7.98002 22.233 7.52002C21.643 6.95002 20.723 6.86006 20.033 7.31006L18.773 8.14001C17.833 8.76001 17.203 9.15997 16.883 9.08997C16.5861 9.03058 16.2108 8.38353 15.6409 7.4008L15.623 7.37L13.403 3.54004C13.113 3.05004 12.573 2.75 12.003 2.75C11.433 2.75 10.893 3.05005 10.593 3.55005L8.36301 7.39001L8.33797 7.43349C7.78213 8.39902 7.41829 9.03101 7.103 9.09998C6.79391 9.16977 6.16666 8.76239 5.20146 8.1355L5.193 8.13L3.963 7.31995C3.283 6.86995 2.353 6.96003 1.773 7.53003C1.293 8.00003 1.123 8.67996 1.343 9.32996L3.593 15.76C3.953 16.8 4.17301 17.43 4.75301 17.83C5.34301 18.25 6.013 18.25 7.123 18.25ZM2.813 8.59998C2.863 8.54998 2.933 8.53003 2.993 8.53003L2.983 8.54004C3.033 8.54004 3.123 8.57996 3.123 8.57996L4.393 9.41003C4.41644 9.4252 4.4397 9.44025 4.46278 9.45519C5.77891 10.3071 6.51903 10.7861 7.43301 10.5601C8.37301 10.3401 8.833 9.56 9.663 8.12L11.873 4.31006C11.923 4.24006 12.063 4.25006 12.103 4.31006L14.333 8.15002L14.3343 8.15229C15.1535 9.57085 15.6035 10.3502 16.543 10.5601C17.473 10.7801 18.233 10.3 19.623 9.39001L20.853 8.57996C20.953 8.50996 21.083 8.51999 21.173 8.60999C21.233 8.65999 21.253 8.75996 21.233 8.82996L18.983 15.26C18.733 15.99 18.563 16.47 18.363 16.61C18.173 16.75 17.683 16.75 16.873 16.75H7.133C6.313 16.75 5.833 16.75 5.623 16.6C5.433 16.47 5.26301 15.99 5.00301 15.24L2.763 8.83997C2.733 8.74997 2.753 8.65998 2.813 8.59998ZM4.99316 21.25H18.9932C19.4032 21.25 19.7432 20.91 19.7432 20.5C19.7432 20.09 19.4032 19.75 18.9932 19.75H4.99316C4.58316 19.75 4.24316 20.09 4.24316 20.5C4.24316 20.91 4.58316 21.25 4.99316 21.25Z" fill="currentColor" />
</svg>