<?xml version="1.0" encoding="UTF-8"?>
<svg id="Layer_1" data-name="Layer 1" xmlns="http://www.w3.org/2000/svg" xmlns:xlink="http://www.w3.org/1999/xlink" viewBox="0 0 2122.9 577.59">
  <defs>
    <style>
      .cls-1 {
        fill: url(#_Безымянный_градиент_25);
      }

      .cls-2 {
        fill: url(#_Безымянный_градиент_16);
      }

      .cls-3 {
        fill: url(#_Безымянный_градиент_16-4);
      }

      .cls-4 {
        fill: url(#_Безымянный_градиент_16-7);
      }

      .cls-5 {
        fill: url(#_Безымянный_градиент_16-6);
      }

      .cls-6 {
        fill: url(#_Безымянный_градиент_16-5);
      }

      .cls-7 {
        fill: url(#_Безымянный_градиент_16-2);
      }

      .cls-8 {
        fill: url(#_Безымянный_градиент_16-8);
      }

      .cls-9 {
        fill: url(#_Безымянный_градиент_16-3);
      }

      .cls-10 {
        fill: url(#_Безымянный_градиент_25-7);
      }

      .cls-11 {
        fill: url(#_Безымянный_градиент_25-8);
      }

      .cls-12 {
        fill: url(#_Безымянный_градиент_25-6);
      }

      .cls-13 {
        fill: url(#_Безымянный_градиент_25-9);
      }

      .cls-14 {
        fill: url(#_Безымянный_градиент_25-4);
      }

      .cls-15 {
        fill: url(#_Безымянный_градиент_25-3);
      }

      .cls-16 {
        fill: url(#_Безымянный_градиент_25-5);
      }

      .cls-17 {
        fill: url(#_Безымянный_градиент_25-2);
      }
    </style>
    <linearGradient id="_Безымянный_градиент_25" data-name="Безымянный градиент 25" x1="221.37" y1="194.66" x2="483.68" y2="194.66" gradientUnits="userSpaceOnUse">
      <stop offset="0" stop-color="#b57e11"/>
      <stop offset=".15" stop-color="#b57e11"/>
      <stop offset=".46" stop-color="#e5c25c"/>
      <stop offset=".61" stop-color="#f9df7c"/>
      <stop offset=".72" stop-color="#fff3a7"/>
      <stop offset=".84" stop-color="#f9df7c"/>
      <stop offset="1" stop-color="#b57e11"/>
    </linearGradient>
    <linearGradient id="_Безымянный_градиент_25-2" data-name="Безымянный градиент 25" x1="105.82" y1="81.89" x2="384.55" y2="81.89" xlink:href="#_Безымянный_градиент_25"/>
    <linearGradient id="_Безымянный_градиент_25-3" data-name="Безымянный градиент 25" x1="176.9" y1="350.8" x2="334.66" y2="350.8" xlink:href="#_Безымянный_градиент_25"/>
    <linearGradient id="_Безымянный_градиент_25-4" data-name="Безымянный градиент 25" x1="84.64" y1="145.46" x2="391.7" y2="145.46" xlink:href="#_Безымянный_градиент_25"/>
    <linearGradient id="_Безымянный_градиент_25-5" data-name="Безымянный градиент 25" x1="1.68" y1="112.7" x2="96.95" y2="112.7" xlink:href="#_Безымянный_градиент_25"/>
    <linearGradient id="_Безымянный_градиент_25-6" data-name="Безымянный градиент 25" x1="0" y1="351.06" x2="377.84" y2="351.06" xlink:href="#_Безымянный_градиент_25"/>
    <linearGradient id="_Безымянный_градиент_25-7" data-name="Безымянный градиент 25" x1="221.58" y1="510.42" x2="284.77" y2="510.42" xlink:href="#_Безымянный_градиент_25"/>
    <linearGradient id="_Безымянный_градиент_25-8" data-name="Безымянный градиент 25" x1="264.9" y1="487.96" x2="371.43" y2="487.96" xlink:href="#_Безымянный_градиент_25"/>
    <linearGradient id="_Безымянный_градиент_25-9" data-name="Безымянный градиент 25" x1="292.73" y1="355.42" x2="341.6" y2="355.42" xlink:href="#_Безымянный_градиент_25"/>
    <linearGradient id="_Безымянный_градиент_16" data-name="Безымянный градиент 16" x1="586.14" y1="439.42" x2="836.17" y2="189.39" gradientUnits="userSpaceOnUse">
      <stop offset="0" stop-color="#c6982f"/>
      <stop offset=".34" stop-color="#f8dd7c"/>
      <stop offset=".73" stop-color="#f8dd7c"/>
      <stop offset="1" stop-color="#ca9e35"/>
    </linearGradient>
    <linearGradient id="_Безымянный_градиент_16-2" data-name="Безымянный градиент 16" x1="790.05" y1="388.48" x2="990.26" y2="188.27" xlink:href="#_Безымянный_градиент_16"/>
    <linearGradient id="_Безымянный_градиент_16-3" data-name="Безымянный градиент 16" x1="1006.29" y1="421.31" x2="1224.24" y2="203.36" xlink:href="#_Безымянный_градиент_16"/>
    <linearGradient id="_Безымянный_градиент_16-4" data-name="Безымянный градиент 16" x1="1264.59" y1="447.01" x2="1401.14" y2="310.45" xlink:href="#_Безымянный_градиент_16"/>
    <linearGradient id="_Безымянный_градиент_16-5" data-name="Безымянный градиент 16" x1="1430.73" y1="430.01" x2="1561.82" y2="298.92" xlink:href="#_Безымянный_градиент_16"/>
    <linearGradient id="_Безымянный_градиент_16-6" data-name="Безымянный градиент 16" x1="1549.65" y1="412" x2="1713.19" y2="248.46" xlink:href="#_Безымянный_градиент_16"/>
    <linearGradient id="_Безымянный_градиент_16-7" data-name="Безымянный градиент 16" x1="1716.82" y1="462.62" x2="1882.83" y2="296.61" xlink:href="#_Безымянный_градиент_16"/>
    <linearGradient id="_Безымянный_градиент_16-8" data-name="Безымянный градиент 16" x1="1961.71" y1="430.89" x2="2095.34" y2="297.26" xlink:href="#_Безымянный_градиент_16"/>
  </defs>
  <g>
    <path class="cls-1" d="M221.37,177.01s146.65,81.74,213.96,74.53c67.31-7.21,52.89-55.89,25.24-77.53-27.65-21.64-76.03-36.66-76.03-36.66,9.68,22.57,23.87,45.21,18.33,67.91,0,0-79.33,3.61-181.51-28.25Z"/>
    <path class="cls-17" d="M105.82,85.84s11.12-39.57,19.4-56.68c18.03-37.26,57.7-37.86,100.97-7.21,43.27,30.65,95.56,76.62,118.4,40.11,0,0,4.51-7.06,6.61-11.11l3.61,84.59,17.63,11.02s-7.47-31.94-18.29-108.47c0,0-15.26,49.07-67.55,12.11C234.29,13.23,195.53,0,195.53,0c84.74,34.27,162.87-12.31,170.09,35.77l18.93,128.02c-110.29-55.89-189.62-5.41-278.73-77.95Z"/>
    <path class="cls-15" d="M185.61,286.99s-11.12,54.99,37.86,84.44c48.98,29.45,61,43.27,86.25,39.97,25.24-3.31,23.14-20.13,5.71-30.35,0,0-14.72-7.81-5.41-10.82,9.32-3.01,28.25-5.11,24.04,6.91-4.21,12.02,5.71,28.85-21.34,36.06-27.05,7.21-71.22-15.63-71.22-15.63,0,0-48.78-13.45-60.4-46.78-11.62-33.33,4.51-63.81,4.51-63.81Z"/>
    <path class="cls-14" d="M96.95,91.66l-12.31,42.07s43.13,1.45,93.13,25c17.17,8.09,35.14,14.31,53.71,18.26,46.22,9.83,128.59,25.78,158.68,21.55l1.54-24.68c-80.17-51.36-235.58-24.93-294.75-82.21Z"/>
    <path class="cls-16" d="M96.95,91.66c-43.19,0-88.65,13.13-95.27,40.18,0,0,55.61-3.48,82.96,1.89l12.31-42.07Z"/>
    <g>
      <path class="cls-12" d="M278.28,410.66c-126.82-52.06-111.2-112.25-111.2-112.25-18.83-10.82-27.65-29.25-27.65-29.25-27.65-42.47,26.53-58.18,35.32-25.25,10.22,38.26,24.78,53.7,24.78,53.7-4.81-31.25,8.41-69.32,8.41-69.32,77.19,62.83,114.4,87.46,128.29,95.9,4.79,.73,9.01,1.37,13.79,2.1l7.38-1.84c-11.22-30.45-9.62-61.7-9.62-61.7,0,15.63,10.02,44.47,10.02,44.47,2.8-20.43,20.03-51.69,20.03-51.69-70.92-.8-155.46-75.33-233.59-102.17C66.11,126.52,0,137.34,0,137.34c0,0,75,.44,103.67,38.13-.34,1.52-.44,7.94,.74,28.78,2.17,38.46,13.39,54.89,12.98,92.16,0,0-5.81,1.2-7.41-9.42,0,0-19.03,53.89-91.55,98.37,0,0,31.65,4.01,69.32,31.25,0,0-26.85-13.62-62.1-10.42,0,0,100.57,39.47,166.68,124.21,15.23,19.52,23.12,29.5,35.46,36.53,11.42-35.12,8.99-48.32,8.99-48.32-9.93-12.39-15.1-20.52-17.78-25.76-13.95-16.02-84.83-100.35-85.37-160.63,0,0,27.05,50.34,110.59,111.04,20.6-12.86,31.02-27.72,34.07-32.6Z"/>
      <path class="cls-10" d="M221.58,495.09l22.63-51.83s10.07,16.56,19.41,43.83l.09,.38c.15,.74,.21,1.51,.17,2.28l-.92,19.71c-.06,1.43,.19,2.87,.77,4.17l21.05,54.93c-12.75,10.03-27.45,13.04-48.53,2.12-.19-.81-.3-1.66-.26-2.51l2.64-46.19c.11-2.06-.51-4.09-1.75-5.75l-15.3-21.14Z"/>
      <path class="cls-11" d="M371.43,469.7c-22.24,3-45.68,35.46-60.11,64.92-5.09,10.39-8.14,19.04-19.36,27.89-9.89-10.87-15.08-21.25-18.42-29.49-3.49-8.62-5.92-14.62-7.77-20.37-2.19-6.77,.38-18.6,1.08-26.92,3.17-6.96,12.8-34.38,17.52-72.31,13.81,9.17,24.54,34.06,24.54,34.06,52.3,7.19,62.52,22.22,62.52,22.22Z"/>
    </g>
    <path class="cls-13" d="M330.79,349.99s-23.24-3.19-38.06,3.42c0,0,2,9.3,34.86,3.14,0,0,5.21,5.06,9.22,5.06,0,0,6.41-2.89,4.41-8.46l-10.42-3.16Z"/>
  </g>
  <g>
    <path class="cls-2" d="M595.72,447.23c0-1.77,.45-2.66,1.33-2.66,8.27,0,14.4-.73,18.39-2.21,3.99-1.48,6.94-4.28,8.86-8.42,1.92-4.13,3.77-10.78,5.54-19.94l35.9-205.19c1.17-5.61,1.77-10.64,1.77-15.07,0-6.2-1.7-10.34-5.1-12.41-3.4-2.06-9.53-3.1-18.39-3.1-.6,0-.89-.89-.89-2.66s.29-2.66,.89-2.66h174.17c2.36,0,3.25,1.33,2.66,3.99l-9.31,59.39c0,.89-.6,1.33-1.77,1.33-.89,0-1.7-.22-2.44-.66-.74-.45-1.11-.81-1.11-1.11-1.18-16.24-6.95-29.25-17.28-39-10.35-9.75-23.64-14.63-39.89-14.63h-7.98c-8.57,0-14.78,.66-18.61,2-3.84,1.33-6.58,3.76-8.2,7.31-1.63,3.55-3.18,9.46-4.65,17.73l-35.9,202.98c-.88,5.32-1.33,9.75-1.33,13.29,0,5.91,1.62,9.9,4.87,11.97,3.25,2.07,9.16,3.1,17.73,3.1h11.52c17.13,0,33.97-5.54,50.52-16.62,16.54-11.08,30.28-25.92,41.21-44.54,.29-.89,1.33-1.11,3.1-.67,1.77,.45,2.36,.96,1.77,1.55-4.73,15.37-9.75,36.34-15.07,62.93-.59,2.66-1.33,4.43-2.21,5.32-.89,.89-2.52,1.33-4.88,1.33h-183.92c-.89,0-1.33-.89-1.33-2.66Zm181.7-94.18c-1.77-.15-2.51-.81-2.22-1.99,.59-4.13,.89-7.09,.89-8.86,0-9.75-3.1-17.21-9.31-22.38-6.2-5.17-14.92-7.76-26.15-7.76h-69.58l1.77-12.41h70.91c13.59,0,24-2.58,31.25-7.76,7.24-5.17,12.19-13.81,14.85-25.93,.29-1.47,1.33-2.14,3.1-1.99,1.77,.15,2.51,.96,2.22,2.44-1.19,8.27-2.96,17.44-5.32,27.48,0,1.18-.74,5.17-2.22,11.97-.89,5.32-1.93,12.26-3.1,20.83-.59,3.25-1.18,6.95-1.77,11.08-.6,4.14-1.33,8.72-2.22,13.74-.3,1.18-1.33,1.7-3.1,1.55Z"/>
    <path class="cls-7" d="M843.9,428.62c0-5.91,.59-11.97,1.77-18.17l40.77-221.59c.89-5.91,1.33-10.78,1.33-14.62,0-8.57-2.81-12.86-8.42-12.86-3.55,0-9.75,2.07-18.61,6.21h-.44c-1.48,0-2.37-.81-2.66-2.44-.3-1.62,.15-2.58,1.33-2.88l68.69-33.68h.89c1.18,0,2.28,.45,3.32,1.33,1.03,.89,1.4,1.63,1.11,2.22l-49.64,278.32c-.88,4.43-1.33,8.13-1.33,11.08,0,6.5,2.22,9.75,6.65,9.75,2.95,0,6.27-1.33,9.97-3.99,3.69-2.66,8.2-6.5,13.52-11.52,.59-.59,1.18-.89,1.77-.89,.88,0,1.62,.52,2.21,1.55,.59,1.04,.45,1.99-.44,2.88-10.05,11.82-18.91,20.54-26.59,26.15-7.69,5.61-15.66,8.42-23.93,8.42-14.18,0-21.27-8.42-21.27-25.26Z"/>
    <path class="cls-9" d="M1164.54,171.35c14.33,2.21,25.78,5.09,34.35,8.64,2.66,.89,4.36,2,5.1,3.33,.73,1.33,1.25,3.62,1.55,6.87l5.76,61.6c0,.89-.74,1.48-2.22,1.77-1.48,.3-2.51-.15-3.1-1.33-8.27-24.22-20.09-42.77-35.45-55.62-15.37-12.85-33.83-19.28-55.4-19.28-20.09,0-38.04,5.39-53.84,16.18-15.81,10.79-28.22,26.22-37.23,46.31-9.02,20.09-13.52,43.58-13.52,70.46s4.65,51.04,13.96,71.57c9.31,20.54,22.16,36.34,38.56,47.42,16.4,11.08,35.23,16.62,56.51,16.62s37.52-5.54,51.41-16.62c13.88-11.08,27.03-29.32,39.44-54.73,.29-.88,1.18-1.17,2.66-.88,1.47,.3,2.22,.88,2.22,1.77l-6.65,54.95c-.59,3.55-1.18,5.84-1.77,6.87-.6,1.04-2.22,2.15-4.87,3.32-27.19,9.75-54.66,14.63-82.43,14.63-31.62,0-59.91-5.98-84.87-17.95-24.97-11.97-44.54-28.73-58.72-50.3-14.18-21.56-21.27-46.09-21.27-73.57s7.31-53.11,21.94-75.12c14.62-22.01,34.71-39.22,60.27-51.63,25.55-12.41,53.99-18.61,85.31-18.61,13.88,0,27.99,1.11,42.32,3.33Z"/>
    <path class="cls-3" d="M1262.26,444.57c-6.5-5.61-9.75-13.44-9.75-23.49,0-7.98,1.92-14.4,5.76-19.28,3.84-4.87,8.64-8.71,14.4-11.52,5.76-2.8,13.81-5.98,24.15-9.53l11.08-3.99,44.32-16.4,1.77,6.65-25.26,11.52c-.89,.3-3.84,1.41-8.86,3.32-5.03,1.93-9.38,5.1-13.07,9.53-3.7,4.43-5.54,9.6-5.54,15.51,0,7.09,2.28,12.63,6.87,16.62,4.58,3.99,9.82,5.98,15.73,5.98,4.72,0,9.6-1.62,14.63-4.88l22.16-15.07,.44,7.09-31.02,22.16c-6.8,5.03-13.15,8.64-19.06,10.86-5.91,2.22-12.56,3.33-19.94,3.33-12.71,0-22.31-2.81-28.8-8.42Zm109.46,8.86c-5.91,0-11.37-3.77-16.4-11.3-5.03-7.54-7.53-17.51-7.53-29.91v-75.34c0-18.9-1.55-32.64-4.65-41.21-3.1-8.57-8.35-12.85-15.73-12.85-15.66,0-24.53,12.12-26.59,36.34-.89,8.86-3.48,15.22-7.76,19.06-4.28,3.84-10.27,5.76-17.95,5.76s-12.78-1.55-16.18-4.65c-3.4-3.1-5.1-7.16-5.1-12.19,0-8.86,5.17-17.35,15.51-25.48,10.34-8.12,22.82-14.69,37.45-19.72,14.63-5.02,27.55-7.54,38.78-7.54,13,0,23.56,4.07,31.69,12.19,8.12,8.13,12.19,20.47,12.19,37.01v78.44c0,8.57,1.55,15.22,4.65,19.94,3.1,4.73,7.46,7.09,13.07,7.09,4.13,0,8.42-1.03,12.85-3.1h.44c1.18,0,2,.67,2.44,2,.44,1.33,.07,2.29-1.11,2.88l-45.65,21.71c-1.18,.59-2.66,.89-4.43,.89Z"/>
    <path class="cls-6" d="M1482.74,322.25c6.05,6.21,14.85,12.71,26.37,19.5,11.23,6.5,19.57,11.6,25.04,15.29,5.46,3.7,10.42,8.86,14.85,15.51,4.43,6.65,6.65,14.7,6.65,24.15,0,10.05-2.51,19.5-7.53,28.37-5.03,8.86-12.56,16.03-22.6,21.49-10.05,5.46-22.01,8.2-35.9,8.2-16.26,0-31.62-3.99-46.09-11.97-1.77-1.77-2.66-3.55-2.66-5.32l-.89-43.87c0-.89,.81-1.4,2.44-1.55,1.62-.15,2.58,.08,2.88,.66,4.72,14.78,12.55,27.33,23.49,37.67,10.93,10.35,22,15.51,33.24,15.51,6.21,0,11.15-1.92,14.85-5.76,3.69-3.84,5.54-9.45,5.54-16.84,0-10.93-3.1-19.57-9.31-25.93-6.21-6.35-15.37-12.92-27.48-19.72-10.35-5.61-18.17-10.19-23.49-13.74-5.32-3.55-10.05-8.57-14.18-15.07-4.14-6.49-6.21-14.47-6.21-23.93,0-17.43,6.21-30.21,18.61-38.34,12.41-8.12,27.62-12.19,45.65-12.19,6.79,0,12.92,.45,18.39,1.33,5.46,.88,11.59,2.66,18.39,5.32,2.66,.89,3.99,2.51,3.99,4.87,0,7.39-.15,13.15-.45,17.28l-.44,22.16c0,.89-.89,1.33-2.66,1.33s-2.66-.44-2.66-1.33c0-5.61-2.37-11.74-7.09-18.39-4.73-6.65-10.86-12.33-18.39-17.06-7.54-4.72-15.29-7.09-23.27-7.09-12.12,0-18.17,5.76-18.17,17.28,0,8.57,3.03,15.96,9.08,22.16Z"/>
    <path class="cls-5" d="M1586.66,447.23c0-1.77,.44-2.66,1.33-2.66,9.15,0,15.36-2.14,18.61-6.43,3.25-4.28,4.87-12.33,4.87-24.15v-79.33c0-10.04-1.04-17.28-3.1-21.71-2.07-4.43-5.47-6.65-10.19-6.65-3.84,0-9.31,1.63-16.4,4.87h-.45c-1.18,0-2.07-.81-2.66-2.44-.6-1.62-.45-2.58,.44-2.88l66.92-31.02,1.33-.45c1.47,0,2.95,.74,4.43,2.22,1.47,1.48,2.21,2.81,2.21,3.99v9.75c-.59,11.82-.88,26.3-.88,43.43v80.22c0,11.82,1.7,19.87,5.1,24.15,3.39,4.29,9.67,6.43,18.83,6.43,.89,0,1.33,.89,1.33,2.66s-.44,2.66-1.33,2.66c-7.69,0-13.74-.15-18.17-.44l-26.59-.45-26.15,.45c-4.43,.3-10.49,.44-18.17,.44-.89,0-1.33-.89-1.33-2.66Zm23.93-223.81c-4.73-4.72-7.09-11.37-7.09-19.94,0-7.68,2.44-13.81,7.31-18.39,4.87-4.57,11.45-6.87,19.72-6.87s14.63,2.22,19.06,6.65c4.43,4.43,6.65,10.64,6.65,18.61,0,8.57-2.22,15.22-6.65,19.94-4.43,4.73-10.79,7.09-19.06,7.09s-15.22-2.36-19.94-7.09Z"/>
    <path class="cls-4" d="M1703.21,447.23c0-1.77,.44-2.66,1.33-2.66,9.15,0,15.36-2.14,18.61-6.43,3.25-4.28,4.87-12.33,4.87-24.15v-83.32c0-9.16-1.11-15.88-3.32-20.17-2.22-4.28-5.69-6.43-10.42-6.43-5.03,0-12.12,2.07-21.27,6.2h-.89c-.89,0-1.55-.73-1.99-2.22-.44-1.47-.37-2.36,.22-2.66l61.6-30.14c1.77-.59,2.8-.89,3.1-.89,3.55,0,6.87,3.77,9.97,11.3,3.1,7.53,4.65,17.5,4.65,29.91v98.39c0,11.82,1.7,19.87,5.1,24.15,3.39,4.29,9.67,6.43,18.83,6.43,.89,0,1.33,.89,1.33,2.66s-.44,2.66-1.33,2.66c-7.69,0-13.74-.15-18.17-.44l-26.59-.45-26.15,.45c-4.43,.3-10.49,.44-18.17,.44-.89,0-1.33-.89-1.33-2.66Zm119.22,0c0-1.77,.44-2.66,1.33-2.66,9.16,0,15.36-2.14,18.61-6.43,3.25-4.28,4.87-12.33,4.87-24.15v-63.82c0-15.95-2.88-27.77-8.64-35.45-5.76-7.68-14.85-11.52-27.26-11.52-9.16,0-18.39,2.29-27.7,6.87-9.31,4.58-16.62,10.56-21.94,17.95l-2.22-5.32c10.64-15.36,22.53-27.4,35.68-36.12,13.14-8.71,27.1-13.07,41.88-13.07,15.95,0,28.59,5.1,37.89,15.29,9.31,10.19,13.96,23.57,13.96,40.11v85.09c0,11.82,1.7,19.87,5.1,24.15,3.39,4.29,9.67,6.43,18.84,6.43,.88,0,1.33,.89,1.33,2.66s-.45,2.66-1.33,2.66c-7.69,0-13.74-.15-18.17-.44l-26.59-.45-25.7,.45c-4.73,.3-10.93,.44-18.61,.44-.89,0-1.33-.89-1.33-2.66Z"/>
    <path class="cls-8" d="M1977.31,443.02c-13.74-8.42-24.3-19.79-31.69-34.13-7.39-14.33-11.08-29.91-11.08-46.75,0-19.2,4.87-35.52,14.63-48.97,9.75-13.44,22.16-23.49,37.23-30.14,15.07-6.65,30.58-9.97,46.53-9.97,18.31,0,34.27,4.29,47.86,12.85,13.59,8.57,24,19.87,31.24,33.9,7.24,14.04,10.86,29.03,10.86,44.98,0,17.73-4.43,33.46-13.3,47.2-8.86,13.74-20.76,24.45-35.68,32.13-14.92,7.68-31.1,11.52-48.53,11.52-18.32,0-34.35-4.21-48.09-12.63Zm87.75-13.74c6.05-11.37,9.08-27.7,9.08-48.97s-2.66-38.4-7.98-53.18c-5.32-14.77-12.26-25.93-20.83-33.46-8.57-7.53-17.73-11.3-27.48-11.3-23.64,0-35.46,21.13-35.46,63.38,0,19.8,2.51,37.3,7.54,52.52,5.02,15.22,11.81,27.03,20.38,35.46,8.57,8.42,18.02,12.63,28.37,12.63,11.52,0,20.31-5.68,26.37-17.06Z"/>
  </g>
</svg>