<svg xmlns="http://www.w3.org/2000/svg" viewBox="0 0 24 24" width="24" height="24" color="#c706fd" fill="#c706fd">
    <defs />
    <path fill="currentColor" d="M7.786,1.25 L8.143,1.25 C9.757,1.25 11.177,2.08 12,3.337 C12.823,2.08 14.243,1.25 15.857,1.25 L16.214,1.25 C17.615,1.25 18.75,2.385 18.75,3.786 C18.75,4.717 18.429,5.573 17.891,6.25 L18.527,6.25 C18.971,6.25 19.345,6.25 19.649,6.272 C19.965,6.295 20.272,6.345 20.565,6.48 C20.896,6.633 21.192,6.862 21.407,7.161 C21.611,7.443 21.687,7.747 21.72,8.04 C21.75,8.303 21.75,8.619 21.75,8.961 L21.75,9.039 C21.75,9.381 21.75,9.697 21.72,9.96 C21.687,10.252 21.611,10.557 21.407,10.839 C21.233,11.081 21.006,11.277 20.75,11.424 L20.75,15.056 C20.75,16.658 20.75,17.937 20.615,18.94 C20.476,19.977 20.18,20.83 19.505,21.505 C18.83,22.18 17.977,22.476 16.94,22.615 C15.937,22.75 14.658,22.75 13.056,22.75 L10.944,22.75 C9.342,22.75 8.063,22.75 7.06,22.615 C6.023,22.476 5.17,22.18 4.495,21.505 C3.82,20.83 3.524,19.977 3.385,18.94 C3.25,17.937 3.25,16.658 3.25,15.056 L3.25,11.424 C2.994,11.277 2.767,11.081 2.593,10.839 C2.389,10.557 2.313,10.252 2.28,9.96 C2.25,9.696 2.25,9.379 2.25,9.036 L2.25,9.036 L2.25,9 L2.25,8.964 L2.25,8.964 C2.25,8.621 2.25,8.304 2.28,8.04 C2.313,7.747 2.389,7.443 2.593,7.161 C2.808,6.862 3.104,6.633 3.436,6.48 C3.728,6.345 4.035,6.295 4.351,6.272 C4.655,6.25 5.029,6.25 5.473,6.25 L6.109,6.25 C5.571,5.573 5.25,4.717 5.25,3.786 C5.25,2.385 6.385,1.25 7.786,1.25 Z M11.25,11.75 L5.473,11.75 C5.206,11.75 4.966,11.75 4.75,11.745 L4.75,15 C4.75,16.671 4.752,17.849 4.871,18.74 C4.988,19.61 5.205,20.095 5.555,20.444 C5.905,20.795 6.39,21.012 7.259,21.128 C8.151,21.248 9.329,21.25 11,21.25 L11.25,21.25 Z M12.75,21.25 L13,21.25 C14.671,21.25 15.849,21.248 16.74,21.128 C17.61,21.012 18.095,20.795 18.444,20.444 C18.795,20.095 19.012,19.61 19.128,18.74 C19.248,17.849 19.25,16.671 19.25,15 L19.25,11.745 C19.034,11.75 18.794,11.75 18.527,11.75 L12.75,11.75 Z M12,10.25 L18.5,10.25 C18.978,10.25 19.297,10.25 19.541,10.232 C19.779,10.215 19.88,10.184 19.935,10.158 C20.06,10.101 20.143,10.027 20.191,9.961 L20.191,9.961 C20.193,9.959 20.197,9.953 20.203,9.935 C20.21,9.912 20.221,9.869 20.23,9.792 C20.249,9.622 20.25,9.391 20.25,9 C20.25,8.609 20.249,8.378 20.23,8.208 C20.221,8.131 20.21,8.088 20.203,8.065 C20.197,8.047 20.193,8.041 20.191,8.039 C20.143,7.973 20.06,7.899 19.935,7.842 C19.88,7.816 19.779,7.785 19.541,7.768 C19.297,7.75 18.978,7.75 18.5,7.75 L5.5,7.75 C5.022,7.75 4.703,7.75 4.459,7.768 C4.221,7.785 4.12,7.816 4.064,7.842 C3.94,7.899 3.857,7.973 3.809,8.039 C3.808,8.041 3.803,8.047 3.797,8.065 C3.79,8.088 3.779,8.131 3.77,8.208 C3.751,8.378 3.75,8.609 3.75,9 C3.75,9.391 3.751,9.622 3.77,9.792 C3.779,9.869 3.79,9.912 3.797,9.935 C3.803,9.953 3.807,9.959 3.809,9.961 C3.857,10.027 3.94,10.101 4.064,10.158 C4.12,10.184 4.221,10.215 4.459,10.232 C4.703,10.25 5.022,10.25 5.5,10.25 L12,10.25 Z M17.25,3.786 C17.25,3.214 16.786,2.75 16.214,2.75 L15.857,2.75 C14.141,2.75 12.75,4.141 12.75,5.857 L12.75,6.25 L14.786,6.25 C16.147,6.25 17.25,5.147 17.25,3.786 Z M11.25,5.857 C11.25,4.141 9.859,2.75 8.143,2.75 L7.786,2.75 C7.214,2.75 6.75,3.214 6.75,3.786 C6.75,5.147 7.853,6.25 9.214,6.25 L11.25,6.25 Z" />
</svg>