<svg xmlns="http://www.w3.org/2000/svg" viewBox="0 0 24 24" width="24" height="24" color="#f975e5" fill="#f975e5">
    <path d="M12 21.2478C11.29 21.2478 10.57 21.0178 9.95996 20.5678C7.33996 18.6078 1.25 13.5278 1.25 8.69781C1.25 5.36782 3.78 2.75781 7 2.75781C8.79 2.75781 10.31 3.42777 12 4.96777C13.69 3.42777 15.21 2.75781 17 2.75781C20.22 2.75781 22.75 5.36782 22.75 8.69781C22.75 13.5378 16.66 18.6178 14.04 20.5678C13.43 21.0278 12.72 21.2478 12 21.2478ZM10.86 19.3678C11.54 19.8778 12.46 19.8778 13.14 19.3678C15.04 17.9478 21.25 12.9678 21.25 8.69781C21.25 6.16781 19.42 4.25781 17 4.25781C15.86 4.25781 14.53 4.53778 12.53 6.53778C12.24 6.82778 11.76 6.82778 11.47 6.53778C9.46997 4.53778 8.14 4.25781 7 4.25781C4.58 4.25781 2.75 6.16781 2.75 8.69781C2.75 12.9678 8.95999 17.9478 10.86 19.3678Z" fill="currentColor" />
</svg>