<svg xmlns="http://www.w3.org/2000/svg" viewBox="0 0 24 24" width="24" height="24" color="#5bf9ed" fill="#5bf9ed">
    <defs/>
    <path fill="currentColor" d="M14.346,3.069 C10.029,1.917 5.614,3.977 3.661,7.771 L5.094,7.858 C5.507,7.883 5.822,8.239 5.797,8.652 C5.772,9.066 5.416,9.38 5.003,9.355 L2.492,9.203 C2.254,9.188 2.038,9.061 1.908,8.861 C1.779,8.661 1.752,8.411 1.837,8.188 C3.772,3.08 9.324,0.176 14.733,1.62 C20.494,3.159 23.924,9.052 22.381,14.788 C20.839,20.524 14.914,23.918 9.154,22.38 C4.875,21.237 1.884,17.694 1.259,13.598 C1.196,13.188 1.477,12.806 1.887,12.743 C2.296,12.681 2.679,12.962 2.742,13.371 C3.28,16.896 5.854,19.946 9.541,20.931 C14.509,22.257 19.607,19.328 20.932,14.399 C22.257,9.471 19.314,4.396 14.346,3.069 Z M12.75,8 L12.75,11.689 L14.531,13.47 C14.824,13.763 14.824,14.237 14.531,14.53 C14.238,14.823 13.763,14.823 13.47,14.53 L11.47,12.53 C11.329,12.39 11.25,12.199 11.25,12 L11.25,8 C11.25,7.586 11.586,7.25 12,7.25 C12.415,7.25 12.75,7.586 12.75,8 Z"/>
</svg>