<svg fill="none" viewBox="8.04 0 102.96 47.602" xmlns="http://www.w3.org/2000/svg" style="max-height:500px" width="102.96" height="47.602"><defs style="z-index:1" xmlns="http://www.w3.org/2000/svg"><radialGradient gradientTransform="matrix(30.8979 0 0 23.3407 33.656 24.602)" gradientUnits="userSpaceOnUse" r="1" cy="0" cx="0" id="a"><stop stop-color="#FF8429"/><stop stop-opacity=".46" stop-color="#FA8128" offset=".427"/><stop stop-opacity=".25" stop-color="#FA8128" offset=".599"/><stop stop-opacity="0" stop-color="#F07C27" offset="1"/></radialGradient></defs><path fill-opacity=".4" fill="url(#a)" d="M66.709 29.551c0 13.18-14.936 20.149-33.355 20.149C14.936 49.7 0 42.73 0 29.551 0 16.372 14.936 0 33.354 0 51.773 0 66.71 16.372 66.71 29.551z" style="z-index:1" xmlns="http://www.w3.org/2000/svg"/><g style="transform:translateX(21px);z-index:2"><path fill="#6E3002" d="m22.272 28.525-.114 1.595h-.228l.114-1.766.228.171z"/><path fill="url(#b)" d="m10.606 35.077-4.65 2.17a.101.101 0 0 0-.056.075.1.1 0 0 0 .03.089c.46.428 2.168 2.278 2.36 7.126 0 .071.025.17.064.11 2.736-4.081 3.053-6.933 3.053-6.933l-.8-2.637z"/><path fill="#E1B65D" d="M7.266 38.894h4.027c.263-.731.338-1.127.338-1.127l-.799-2.62-4.69 2.175a.07.07 0 0 0-.04.052.07.07 0 0 0 .021.062c.483.398.873.895 1.143 1.458z"/><path fill="url(#c)" d="M8.43 44.488c.013 0 .026.002.038.007 2.811-4.073 3.299-6.58 3.299-6.58l-.789-2.601-4.7 2.16a.07.07 0 0 0-.018.113c.41.365 1.99 1.917 2.14 6.904a.123.123 0 0 1 .03-.003z"/><path fill="#A56921" d="M9.772 42.01a5.021 5.021 0 0 1-.767.275c-.255.068-.513.13-.775.175.08.605.139 1.28.164 2.032a.11.11 0 0 1 .068.003 31.843 31.843 0 0 0 1.613-2.623l-.303.139z"/><path fill="url(#d)" d="M9.376 38.682c-.085.274-.339.827-.614 1.478-.393.923 0 1.577.1 2.573.043.43-.399 1.19-.45 1.73.02 0 .039.005.056.015l.01.008c2.79-4.045 3.267-6.535 3.267-6.535l-.8-2.588-2.938 1.35c-.457.171-.335.609.114.507.742-.169 1.483.731 1.255 1.462z" opacity=".65" style="mix-blend-mode:multiply"/><path fill="#5E320F" d="M4.98 13.6a4.199 4.199 0 0 1-.67 1.644 2.499 2.499 0 0 0-.252.484c-.237.596-.413 1.347.014 2.2.504 1.005.876 1.496.752 1.944-.124.448-.58 1.703-.58 1.703s.269.876.456 1.253c.187.377.86.81.201 1.772-.657.962.198 2.614.598 3.013.4.399 1.322.599 2.515.3 1.194-.3 4.552-1.377 4.552-1.377s3.834-4.937 4.203-5.69c.37-.752 1.396-4.91 1.111-6.449-.285-1.538-1.997-3.475-2.796-3.646-.798-.17-6.219.4-6.732.57-.514.171-3.493 1.253-3.373 2.279z"/><path fill="url(#e)" d="M5.148 13.6a3.4 3.4 0 0 1-.555 1.758 2.501 2.501 0 0 0-.252.484c-.237.596-.402 1.196.025 2.05.503 1.006.75 1.534.627 1.981-.123.448-.923 1.816-.923 1.816s.368.727.555 1.104c.187.376 1.103.845.446 1.807-.658.962-.601 2.728-.202 3.127.4.399 2.12.485 3.315.186 1.193-.3 4.55-1.377 4.55-1.377s3.835-4.937 4.204-5.69c.37-.752 1.396-4.91 1.111-6.449-.285-1.538-1.997-3.475-2.796-3.646-.799-.17-6.219.4-6.732.57-.514.171-3.493 1.253-3.373 2.279z"/><path fill="url(#f)" d="M8.26 22.02a1.047 1.047 0 0 0-.038-.258c-.191-.122-.342-.242-.342-.242s-.514-.374-.996-.166c-.39.17-.685.152-.762-.268a.955.955 0 0 1 .162-.715c.175-.248.38-.372.411-.564.035-.212.403-1.587.302-2.148-.05-.129-.114-.215-.189-.24h-.004a.085.085 0 0 1-.035-.008c-.32-.037-.535.806-.535.806-.088.2-.653 1.68-.767 1.851-.114.171-.257.256-.37.427-.115.171-.8.969-.996 1.197-.118.135.13.656.368.797.013-.239.032-1.117.793-.775.97.439 1.712.601 2.1.436.367-.135 1.031.36 1.008.725.268-.038.046-.42-.11-.855z" style="mix-blend-mode:overlay"/><path fill="url(#g)" d="M6.156 17.987c-.08-.285-.947-.854-.947-.854s-.456-.114-.648-.064c-.12.03-.216.294-.319.549.036.094.076.186.122.276.503 1.005.75 1.533.627 1.98l-.005.019h.004c.008 0 .114-.536.22-.708.126-.207.608.17.685 0 .227-.514.341-.913.261-1.198z" opacity=".8" style="mix-blend-mode:multiply"/><path fill="#F5DEC9" d="M10.02 18.5a.485.485 0 1 0 .001-.97.485.485 0 0 0 0 .97z"/><path fill="#F2AC4A" d="M5.642 18.785a.485.485 0 1 0 0-.97.485.485 0 0 0 0 .97z"/><path fill="url(#h)" d="M16.112 10.469c-.114-.285-1.483-2.336-2.396-1.197a15.007 15.007 0 0 0-.995 1.556c-1.79.144-3.888.392-4.197.495-.514.17-3.493 1.253-3.373 2.279a3.42 3.42 0 0 1-.475 1.633c.253-.343.253-1.178 2.707-1.918 1.087-.328 2.885-.942 4.08.17a.412.412 0 0 1 .127.357c-.032.229-.043.46-.034.69.106 2.258 1.088 3.653 1.338 3.867.25.214 2.02.555 1.563 1.922-.342.798-1.24 1.543-1.504 1.823-.264.281-.949.867-1.177 1.766-.228.912-1.027.608-1.598.56-.142-.012-.573.76-1.093 1.472a1.374 1.374 0 0 1-.658.486c-1.324.463-.637.574-.59.73.172.554 2.603.561 3.139.74.988.33 1.883-1.45 3.195-2.662 1.312-1.211 2.188-4.086 2.263-4.272.075-.186 1.102-5.526 1.102-5.819 0-.293-1.31-4.394-1.424-4.678z" opacity=".8" style="mix-blend-mode:multiply"/><path fill="url(#i)" d="M22.27 27.502s-.46 3.532-.17 4.557c.288 1.026-3.253 5.469-5.079 7.064-1.826 1.595-7.075 2.173-7.075 2.173s.3-4.684-.334-5.992c-.634-1.307 7.751-6.663 8.094-7.346.342-.684.823-2.893 2.465-3.355 1.642-.462 2.568.399 2.568.399l-.469 2.5z"/><path fill="url(#j)" d="M11.542 34.566c.066.157-.343 2.791.4 4.444.74 1.651 3.594-4.159 4.221-5.526.628-1.367.97-.627.57 1.709-.399 2.335 5.193-2.336 5.022-3.02-.171-.683-.738-1.975.342-4.5 1.08-2.524-.201-3.987-1.3-3.133-1.097.855-10.054 8.146-9.255 10.026z" opacity=".75" style="mix-blend-mode:multiply"/><path fill="#5E320F" d="M9.61 19.372s0 .252.759.084c.76-.168 1.604-.422 1.604-.422s-1.182.843-1.689.843c-.506 0-.675-.253-.675-.505z"/><path fill="url(#k)" d="M12.172 17.429c.062.07.123.133.183.19a6.743 6.743 0 0 1-.537-1.38 2.616 2.616 0 0 0-.434-.243c-.253-.084-1.417.152-1.511.203a1.034 1.034 0 0 0-.236.162c-.493-.026-1.125.04-1.302.436 0 0-.348.632-.887.632-.233.084-.036 1.17 1.233.922.256.094-.251.68.086.764.337.084.713-.608.78-.901.09-.383-.31-.434-.513-.57-.19-.127-.194-.342.222-.576.159-.09.302-.165.426-.228.138-.071.29-.11.445-.114.531-.016 1.48.06 2.045.703z" opacity=".8" style="mix-blend-mode:multiply"/><path fill="#5E320F" d="M12.886 18.401a13.173 13.173 0 0 1-1.211-.532c-.718-.354-1.984-.944-2.66.153.16-.084.325-.153.496-.207.242-.072.502-.063.738.028.534.201 1.602.591 1.797.559 0 0-.897-.484-1.461-.663.382.062.751.19 1.09.378.845.316 1.211.284 1.211.284zM9.102 18.696s.17-.337.422-.422c.084.085 1.584.269 1.72.26-.57.07-1.382.078-1.636.078a1.843 1.843 0 0 0-.506.084z"/><path fill="url(#l)" d="M4.496 22.292s-.085-.96.886-.522c.97.437 1.555.542 1.945.376.443-.163 1.474.651 1.052.989-.422.337-1.494.491-1.887.414-.393-.078-2.165-.92-1.996-1.257z" opacity=".65" style="mix-blend-mode:multiply"/><path fill="url(#m)" d="M7.38 21.803c-.39.166-1.146.233-2.117-.205-.816-.368-.886.251-.888.456h.007c.031-.254.185-.66.881-.346.97.438 1.712.601 2.1.435.343-.126.94.295 1.004.649.072-.362-.608-1.129-.987-.989z" style="mix-blend-mode:overlay"/><path fill="#9C5B1B" d="M8.851 21.815c.053-.107.338 1.012.845 1.096 0 .338-.591.333-.676.124-.084-.209-.253-1.051-.169-1.22z"/><path fill="url(#n)" d="M5.475 16.674s.747.337 1.134 0c.434.59.485.583.485.583s-.437-.077-.606.43c-.024.072-.072.089-.084.17-.04.219-.676-.084-.718-.253-.042-.169-.549-.762-.211-.93z" opacity=".8" style="mix-blend-mode:multiply"/><path fill="url(#o)" d="M8.369 19.876c.05-.383.412-.71.718-.862 0-.037-.06.007-.05-.031-.146-.07.069-.326-.02-.448-1.07-1.458.294-1.976-.044-1.686-.193.167-1.597.342-2.11-.284-.176.02.307.659.193.667.01.01.02.018.032.023a.482.482 0 0 0-.342.05c-.057.035-.014.114.053.114h.004c.507 0-.068 2.12-.114 2.388-.032.192-.236.316-.411.564a.956.956 0 0 0-.163.715c.076.42.372.437.763.268.48-.208.995.166.995.166s.656.513.95.498c-.526-.472-.566-1.299-.454-2.142z" opacity=".8" style="mix-blend-mode:multiply"/><path fill="#451E02" d="M5.89 17.768c-1.182-.084-1.312.562-1.312.562-.034.129.171.4.3.62.079.134.423-.115.603-.084.203.033.378.052.41.083 0-.084.58-1.207.58-1.207s-.124.303-.58.026zm-.21.97z"/><path fill="#642B02" d="M5.833 17.816s.121.645-.025.92c-.146.277.165-.116.295-.262.13-.146.302-.544.244-.601-.057-.057-.514-.057-.514-.057z"/><path fill="#5E320F" d="M6.562 17.502a.01.01 0 0 0-.006-.011.01.01 0 0 0-.006-.001.01.01 0 0 0-.006.003c-.151.244-.543.886-.6 1.178-.115.573-.377 1.258-.8 1.595-.422.337-1.072.747-1.157 1.59-.051.51.59 1.517 1.435 1.601.845.084.94.21 1.251.127.311-.085 2.084 0 2.084-.59s.042-1.307-.886-1.476c.422.59.928 1.602-.085 1.517-.507 0-.675-.421-1.097-.505-.422-.085-.845.17-.591.337.253 0 .844-.084.844.253 0 .084-1.435.084-1.858-.253-.422-.337-1.158-.705-.567-1.633.506-.674 1.412-1.317 1.496-2.16.135-.538.433-1.289.549-1.572z"/><path fill="#5E320F" d="M6.132 21.131c-.038-.135.278.323.55.075.302-.101-.266.93-.55-.075z"/><path fill="#9C5B1B" d="M6.01 25.109s-.081.588.359.721c.44.134.57-.455.877-.36.306.095-.95-.76-1.236-.361z"/><path fill="#854617" d="M5.445 26.076s.114.285 3.195.285c-.228.285-2.966.684-3.195-.285z"/><path fill="url(#p)" d="M4.755 25.965s-.57 1.196-1.14 1.937c-.571.74-1.2 3.133-.286 5.297.057-.455.114-.57.114-.57s.513 2.849 2.225 3.19c-.057-.341-.114-.455-.114-.455s2.51 1.652 5.078.228c.514-.342.685-.684.685-.684s.17.4-.343.74c1.027-.683 3.766-.91 4.85-3.303-.032.302-.129.594-.285.854 0 0 4.336-2.013 4.336-6.38 0-1.253.82-1.375 1.58-1.97.76-.593-.153 3.224.645 4.078.742-1.025 2.704-5.71 3.491-7.783.788-2.072 1.837-6.688 0-9.023-1.836-2.334-8.74-3.53-9.881-3.417-1.141.114-1.227 1.285-.97 2.195.257.91.6 2.279.2 2.678-.4.398-.343.854.228 1.48.57.627 1.29 1.787 1.13 2.688-.16.901-.999 4.41-1.778 5.59-.778 1.179-1.362 3.008-3.352 3.29-1.528.279-3.065 1.395-2.984-.073-1.665.026-2.317-.165-2.317-.165a1.025 1.025 0 0 0-.181.968c.193.527-.913.364-.538-1.609-.044-.073-.307-.322-.393.219z"/><path fill="url(#q)" d="M25.596 12.122c-1.836-2.335-8.74-3.532-9.881-3.418-1.141.114-1.227 1.285-.97 2.195.257.91.599 2.279.2 2.678-.4.398-.343.854.228 1.48.265.295.497.618.692.963.71.316 1.377.723 1.983 1.21.867.705 1.61 1.612 2.074 2.631.504 1.11.695 2.33.795 3.536.05.6.907.316.932.918 0 .026-.405.705-.19.537.76-.596-.153 3.22.646 4.075.742-1.025 2.703-5.71 3.491-7.783.788-2.072 1.837-6.686 0-9.022z" opacity=".3" style="mix-blend-mode:multiply"/><path fill="#4A1F00" d="M19.454 21.846s.46.448.611 1.314c.15.866.247 1.99 1.35 1.55 1.083-.684.912-1.425 1.254-1.88.343-.456 1.615-1.958 1.484-3.418-.131-1.46-1.386-2.152-2.225-1.994-.84.158-1.878 1.1-2.054 1.945-.177.846-.386.798-.423 1.05-.036.251-.303 1.02.003 1.433z"/><path fill="url(#r)" d="M19.282 22.016s.461.448.612 1.314c.123.705.348 1.307 1.021 1.27a1.3 1.3 0 0 0 .97-.53c.307-.421.297-.9.554-1.241.342-.456 1.517-1.978 1.386-3.439-.131-1.46-1.075-2.119-1.916-1.96-.84.158-2.033 1.258-2.207 2.104-.174.845-.285.675-.422 1.049-.084.24-.303 1.02.002 1.433z"/><path fill="url(#s)" d="M23.313 19.072s.307.823-.378 2.133c-.684 1.31-.899 1.582-1.198 1.88-.4.399-2.128.555-1.512-1.396.434-1.28.428-1.566.428-1.737a.394.394 0 0 0-.046-.182.437.437 0 0 1-.037-.29c.028-.14.066-.277.114-.41.117-.32.302-.592.456-.684.283-.171 1.424-.57 2.172.686z" opacity=".55" style="mix-blend-mode:multiply"/><path fill="url(#t)" d="M20.762 18.966s1.222.373 1.34 1.008c.076.417.684.614 1.03.294.182-.171.285-.399.228-.912a1.247 1.247 0 0 0-.97-1.082c-.342-.07-1.203-.44-1.628.692z" opacity=".65" style="mix-blend-mode:multiply"/><path fill="#5E2800" d="M21.654 18.062c-.817.14-1.047 1.048-1.111 1.523h.01c.084-.478.38-1.372 1.392-1.31.7.057 1.355.798 1.355.798s-.349-1.192-1.646-1.011z"/><path fill="#5E2800" d="M21.453 18.288s1.445.213 1.16 1.466c.17-.171.304-1.448-.561-1.579-.476.024-.599.113-.599.113z"/><path fill="url(#u)" d="m20.556 19.582-.007.016c.003.06.018.118.046.171.03.056.046.119.046.183 0 .116-.032.44-.19 1.042-.01.472-.049.855.447.809.628-.057.908-.55.799-1.3-.171-.76-.765-1.104-1.141-.921z" opacity=".65" style="mix-blend-mode:multiply"/><path fill="#5E2800" d="M20.555 19.582s1.084-.057 1.14 1.197c.115-.17-.349-1.968-1.14-1.197z"/><path fill="#5E320F" d="M26.202 14.409c-1.503 0-4.258-1.186-6.69-2.232-1.74-.748-3.383-1.454-4.044-1.49-1.97-.103-9.295-.433-9.37-.435a.286.286 0 0 1-.228-.44c.01-.017 1.099-1.725 2.038-5.556C8.584 1.385 10.138.21 13.27.21c.351 0 .733.015 1.132.045h.02l.71.1c3.823.537 9.596 1.34 11.744 6.324.89 1.927 1.198 3.613.533 6.979 0 .008.048.014.046.022-.096.332-.392.728-1.254.728z"/><path fill="url(#v)" d="M6.102 9.966s1.11-1.705 2.075-5.643C8.852 1.459 10.365.242 14.375.54c3.74.542 10.01 1.1 12.23 6.254.79 1.705 1.252 3.33.567 6.806-.628 2.164-9.705-3.094-11.7-3.2-1.994-.104-9.37-.435-9.37-.435z"/><path fill="url(#w)" d="M26.613 6.795c-1.73-4.014-5.915-5.24-9.448-5.842-.165.43.895 1.31.257 2.791-3.325 7.747 1.427 4.524.514 5.81-.435.612-1.953.388-1.754.992 2.863.85 10.426 5.024 10.997 3.055.685-3.475.224-5.1-.566-6.806z" opacity=".45" style="mix-blend-mode:multiply"/><path fill="url(#x)" d="M22.286 11.15h-.02l-.768-.053a2.008 2.008 0 0 1-.582-.129c-.55-.21-1.023-.664-1.332-1.28-.3-.6-.434-1.338-.375-2.075.142-1.755 1.317-3.13 2.677-3.13.046 0 .093 0 .14.006l.768.053a.255.255 0 0 1 .051.008c.154.02.305.059.45.114.55.21 1.023.664 1.331 1.28.302.601.435 1.338.375 2.075-.07.864-.615 2.43-1.124 3.015-.495.57-.9.114-1.55.114h-.006a.252.252 0 0 1-.035.002z" opacity=".8" style="mix-blend-mode:multiply"/><path fill="#5E320F" d="M24.404 5.817c-.285-.575-.714-.998-1.212-1.19a1.774 1.774 0 0 0-.433-.11l-.778-.057c-.04 0-.082-.004-.123-.004-1.245 0-2.325 1.31-2.458 2.98-.057.711.07 1.424.354 1.998.285.574.715.998 1.212 1.19.166.063.34.102.517.114l.78.057a.029.029 0 0 0 .011-.003h.03c.583 0 1.153-.29 1.606-.818.48-.56.782-1.328.848-2.16.057-.71-.069-1.42-.354-1.997z"/><path fill="#FFB54E" d="M22.218 10.546c.917-.347 1.644-1.442 1.75-2.784.107-1.342-.439-2.527-1.29-2.998l.013-.162-.721-.05c-1.238-.088-2.35 1.208-2.484 2.894-.134 1.685.76 3.123 1.997 3.21l.721.051.014-.161z"/><path fill="#fff" d="M20.123 5.575a3.626 3.626 0 0 0-.53 1.19l.692.048.53-1.189-.692-.049zM20.969 4.786l.694.05 1-.236-.695-.05a1.772 1.772 0 0 0-1 .236zM19.484 8.136c.036.433.15.857.338 1.25l.507.033-.295-1.246-.55-.037zM20.527 10.27l.694.05.952.372-.694-.049a1.752 1.752 0 0 1-.952-.372z" style="mix-blend-mode:overlay"/><path fill="url(#y)" d="M24.647 7.891c.176-1.683-.725-3.155-2.012-3.29-1.287-.133-2.473 1.122-2.649 2.805-.176 1.683.725 3.156 2.013 3.29 1.287.134 2.473-1.122 2.648-2.805z"/><path fill="#fff" d="M20.099 6.819c.108-.43.296-.835.553-1.196l1.182 1.432c-.076.105-.13.223-.162.348l-1.573-.584zm-.115 1.356 1.655-.37c.01.127.046.252.103.366l-1.404 1.26a3.49 3.49 0 0 1-.352-1.256h-.002zm1.549-3.343a1.913 1.913 0 0 1 1.04-.235l-.177 2.158a.556.556 0 0 0-.304.068l-.56-1.991zm-.457 5.5.88-1.895a.541.541 0 0 0 .29.108l-.171 2.158h-.007a1.866 1.866 0 0 1-.988-.371h-.004zm1.608-3.47.878-1.896c.314.239.568.547.742.9l-1.403 1.261a.75.75 0 0 0-.213-.265h-.004zm-.125 1.612a.792.792 0 0 0 .26-.234l1.18 1.43c-.23.33-.532.602-.882.798l-.558-1.994zm.453-.983 1.655-.372c.04.455.003.913-.11 1.356l-1.575-.583c.032-.13.041-.265.028-.399l.002-.002z" opacity=".65" style="mix-blend-mode:overlay"/><path fill="url(#z)" d="M24.12 7.827c.12-1.157-.493-2.168-1.368-2.258-.875-.09-1.681.774-1.801 1.932-.12 1.157.493 2.168 1.368 2.258.875.09 1.681-.774 1.801-1.932z"/><path fill="#8C4A17" d="M23.529 6.385a1.138 1.138 0 0 0-.788-.408h-.071c-.712 0-1.329.704-1.404 1.603-.045.528.103 1.029.405 1.373a1.136 1.136 0 0 0 .787.408h.071c.712 0 1.329-.704 1.404-1.603.045-.528-.102-1.028-.404-1.373z"/><path fill="url(#A)" d="M23.797 7.795c.093-.89-.384-1.67-1.066-1.742-.681-.07-1.31.594-1.402 1.486-.093.89.384 1.67 1.065 1.742.682.07 1.31-.594 1.403-1.486z"/><path fill="#91420F" d="M19.474 7.732c-.11 1.662.786 2.833 2.01 2.92l.422.029c.053.008.108.016.162.02.848.056 1.487-.236 1.97-1.09-1.308-.683-2.681-1.253-4.564-1.88z" opacity=".65" style="mix-blend-mode:multiply"/><path fill="url(#B)" d="M17.158.956a32.268 32.268 0 0 0-.471-.078c.05.477.843 1.331.272 2.68-2.018 4.762-1.06 5.431-.2 5.513-.652-.33-.998-1.468.657-5.324.637-1.485-.422-2.362-.258-2.79z" style="mix-blend-mode:overlay"/><path fill="url(#C)" d="M26.608 6.795c-2.22-5.154-8.49-5.712-12.23-6.255-.51-.037-.98-.051-1.413-.04.258.006.528.02.81.042 3.753.56 10.204.957 12.43 6.28.791 1.76 1.094 3.618.407 7.207a.545.545 0 0 1-.02.057c.301-.065.505-.219.582-.484.685-3.477.224-5.102-.566-6.807z" style="mix-blend-mode:overlay"/><path fill="url(#D)" d="M27.123 13.488c.092-.466.233-.848.286-1.253.033-.507-4.27-3.558-9.415-4.614-5.433-1.115-9.56-.806-10.587-.615-.561 1.642-1.058 2.556-1.231 2.853.97.043 7.406.333 9.248.43.3.017.762.15 1.33.356l.027.01.12.045 8.895 3.29c.71.074 1.198-.056 1.327-.502z"/><path fill="url(#E)" d="M27.172 13.6c.092-.466.162-.898.215-1.303.034-.507-4.142-3.337-9.287-4.393-5.907-1.213-10.27-.74-10.784-.57a39.484 39.484 0 0 1-1.214 2.631s7.376.331 9.373.437c.301.016.763.149 1.33.355l.028.01.12.045 8.895 3.29c.707.074 1.195-.056 1.324-.502z"/><path fill="url(#F)" d="M7.316 7.505c.514-.171 4.878-.643 10.784.57 4.952 1.016 9.006 3.676 9.273 4.326l.014-.104c.034-.507-4.142-3.337-9.287-4.393-5.907-1.213-10.27-.74-10.784-.57a39.484 39.484 0 0 1-1.214 2.631l.083.004c.205-.409.741-1.5 1.131-2.464z" style="mix-blend-mode:overlay"/><path fill="url(#G)" d="M29.13 14.308c-2.769-2.863-8.73-6.073-19.31-6.004-3.775.08-12.975.6-8.547 4.728.602.641 1.708 1.367 3.08 2.222 0 0-.166-3.326 8.046-3.885 4.543.193 14.12 1.44 13.123 10.151.285.221 5.934 1.082 5.895-3.401-.027-.883-.723-2.32-2.287-3.81z"/><path fill="url(#H)" d="M4.233 15.025s-.237-3.155 7.926-3.713c4.516.192 14.46 1.325 13.47 10.036.285.221 5.477 1.197 5.438-3.287-.075-2.523-5.59-9.575-21.129-9.473-4.26.09-15.177.513-5.705 6.437z"/><path fill="url(#I)" d="M4.584 15.366s-.237-3.155 7.927-3.714c4.515.193 13.814 1.442 12.823 10.153.286.22 6.124 1.082 6.085-3.404-.076-2.523-5.591-9.575-21.13-9.473-4.259.09-15.176.513-5.705 6.438z"/><path fill="#5E320F" d="M10.232 18.33c-.285.077-.519.058-.588-.2-.07-.258.105-.53.39-.606a.537.537 0 0 1 .537.144l.018-.008a.628.628 0 0 0-.677-.222c-.334.09-.54.41-.456.714.083.304.42.477.754.387.2-.057.251-.151.308-.38-.068.13-.126.129-.286.172z"/><path fill="#5D3110" d="M9.92 18.274c.079 0 .143-.077.143-.171 0-.095-.064-.172-.143-.172-.079 0-.143.077-.143.172 0 .094.064.171.143.171zM5.618 18.49c.063 0 .114-.062.114-.138 0-.076-.05-.137-.114-.137-.063 0-.114.061-.114.137 0 .076.051.137.114.137z"/><path fill="url(#J)" d="M21.81 12.065C16.92 9.623 9.037 9.433 4.352 10.583c-2.567.631-3.024 2.564-1.003 3.966.366.26.775.534 1.232.82 0 0-.237-3.155 7.927-3.714 4.515.193 13.813 1.442 12.823 10.153.117.091 1.18.291 2.386.179 1.572-.147 1.92-1.677 1.512-3.2-.837-3.134-4.498-5.265-7.417-6.722z" opacity=".65" style="mix-blend-mode:multiply"/><path fill="url(#K)" d="M26.152 21.974a1.503 1.503 0 0 0 1.654-1.48c0-.385-.047-.767-.14-1.14-.755-3.082-3.22-5.286-5.85-6.722-4.407-2.406-12.34-2.492-16.56-1.358-2.313.621-2.725 2.526-.904 3.908l.232.178c-.006-.154-.027-3.163 7.927-3.707 4.516.192 13.814 1.441 12.824 10.153.06.046.369.122.817.168z" opacity=".65" style="mix-blend-mode:multiply"/><path fill="#5E320F" d="M13.285 18.4s.648-.507 1.454 0c-.356 0-.44-.168-1.454 0zM14.379 18.908s-.171-.506-.93-.337c.254.17.55.21.719.548.084-.084.042-.295-.172-.422.214-.042.383.211.383.211zM11.977 23.33c.084-.067.337-.927.843-1.263.506-.337 1.303-1.083 1.293-1.174-.01-.092-.322 1.041-.87 1.342-.55.3-1.266 1.096-1.266 1.096zM9.102 17.514a1.913 1.913 0 0 1 1.66-.223c-.112-.312-1.576-.62-1.66.223zM11.676 16.8s1.35.506 1.266 1.266a2.985 2.985 0 0 0-1.266-1.266zM11.555 14.734s1.013.17 1.181.506c-.084-.422-.59-.62-.59-.62l.59.215-.42-.367h.265l-.604-.183.171.162s-.509.118-.593.287zM6.48 16.083s-.189 1.096.962 1.35c-.149-.254-.793-.338-.962-1.35zM9.623 18.97s.197.126.699.03c.501-.097.644-.215.644-.215s-.679.076-.885.076c-.207 0-.544.012-.458.11z"/><path fill="url(#L)" d="M6.82 16.507s.718 1.222 1.984.547c1.267-.674 2.123-1.276 3.953-.153.03-.198.015-.773-.407-1.026 0 0 .464-.042.717.295-.065-.393-.565-.911-1.658-1.007a3.806 3.806 0 0 0-1.584.214c-.412.146-1 .35-1.443.498-.76.253-1.35.506-1.52.253.085.253.254.59 1.013.758-.506-.003-.928-.171-1.055-.379z"/><path fill="url(#M)" d="M3.993 17.244c.02-.074.298-1.414 1.058-.824.253.421.36-.337.36-.337s.315 1.601.906 1.77c-.084.337-1.01-.251-1.349-.463-.34-.21-.508.041-.342.632-.082.168-.763-.293-.633-.778z"/><path fill="url(#N)" d="M5.894 20.724c-.171.342-.342.684-.513.798-.208.137-.628 0-.571-.171.09-.27.471-.68.799-1.083.327-.403.542-1.322.627-1.253.086.07-.114 1.253-.342 1.709z" style="mix-blend-mode:overlay"/><path fill="url(#O)" d="M11.618 14.902c-.02.215-.602-.057-1.604.24-.754.223-1.472.762-1.451.548.02-.214.33-1.538 1.604-1.514.754.014 1.472.511 1.451.726z" style="mix-blend-mode:overlay"/><path fill="url(#P)" d="M11.129 14.713c-.004.114-.41.03-1.073.289-.5.195-.958.554-.954.438a1.115 1.115 0 0 1 1.01-.97c.51-.065 1.02.127 1.017.243z"/><path fill="url(#Q)" d="M11.89 16.733c-.03.137-.274-.093-.628-.17-.353-.079-1.057.022-1.027-.115.03-.137.845-.192 1.199-.114.353.078.486.262.456.4z" style="mix-blend-mode:overlay"/><path fill="url(#R)" d="M4.693 15.442c-.126.027-.452.444-.343.73.11.287.571-.222.743.032.17.254.4-.931-.4-.762z" style="mix-blend-mode:overlay"/><path fill="url(#S)" d="M3.976 24.795s-.542 1.737.6 1.623c.855-.228.94-1.452 1.892-1.14.942.21 4.152 2.316 5.686.869a1.06 1.06 0 0 0 .342-.863c-.03-.323-.212-.423-.334-.463 0 0 .143 1.054-.827.541-.742-.456-.879-.789-1.084-1.367-.314-.883-1.376-1.098-2-.92-.625.18-1.448.39-2.035.313-.587-.077-1.842-.418-1.9.778-.056.74.343 1.14.058 1.424-.055.06-.398.002-.398-.795z"/><path fill="url(#T)" d="M9.38 20.117c.442.124 2.16.496 3.214-.825.685-.496 1.345.288.749 1.258s-1.624 1.425-1.91 1.767c-.284.341-1.814-.203-1.848-.871-.029-.57-.602-.955-.461-1.228a.219.219 0 0 1 .256-.101z" style="mix-blend-mode:overlay"/><path fill="url(#U)" d="M6.643 23.681s1.94-.772 2.895.243c.796.99 1.825 2.325 2.572 1.67-.125.327-1.305 1.252-2.92.109-.488-.347-.662-.855-1.056-1.093-.91-.553-2.141-.547-1.49-.928z" style="mix-blend-mode:overlay"/><path fill="url(#V)" d="M5.56 23.572c.399 0 .554.512.228.553-.571.073-.742-.097-.742.871 0 1.187-.985 1.481-1.102.784-.006-.04-.01-.08-.01-.12-.023-.574.066-.329.066-.329s.136.324.304.388c.13.05.292-.085.342-.473.115-.828-.228-1.302.4-1.598.184-.086.326-.076.513-.076z" style="mix-blend-mode:overlay"/><path fill="url(#W)" d="M9.532 23.924c-.957-1.015-2.894-.242-2.894-.242a.801.801 0 0 0-.115.078c.023-.007 1.989-.564 2.727.759.692 1.242 2.277 1.771 2.765 1.211l.016-.02a.551.551 0 0 0 .071-.117c-.743.655-1.774-.678-2.57-1.67z" style="mix-blend-mode:overlay"/><path fill="url(#X)" d="M5.895 23.743a.41.41 0 0 0-.337-.171c-.188 0-.33-.01-.513.076-.628.296-.286.77-.4 1.598-.05.388-.212.523-.342.473-.168-.064-.304-.388-.304-.388s-.03-.08-.05-.04c-.01.212-.103.637.24.73.627.171.669-.992.757-1.741.053-.573.646-.594.949-.537z" style="mix-blend-mode:overlay"/><path fill="url(#Y)" d="M6.538 24.104s-.583.606.272 1.005c.856.399 1.92.717 1.959.929.038.21-.13-.823-.987-1.19-.857-.366-1.004-.438-1.244-.744z" opacity=".62" style="mix-blend-mode:overlay"/><path fill="url(#Z)" d="M5.952 24.14s.217.456-.104.798c-.321.341-.445.42-.648.805-.203.384-.446.409-.446.409.152-.136.263-.31.319-.506.08-.31-.034-1.022.251-1.164.343-.171.343.029.628-.342z" opacity=".62" style="mix-blend-mode:overlay"/><path fill="#fff" d="M12.805 19.768c.244-.2.385-.43.315-.515-.07-.086-.325.007-.569.206-.244.2-.385.43-.315.516.07.085.324-.008.569-.207zM10.977 16.45c.158 0 .285-.038.285-.086 0-.047-.127-.085-.285-.085-.158 0-.286.038-.286.085 0 .048.128.086.286.086zM10.088 18.161a.143.143 0 1 0 0-.286.143.143 0 0 0 0 .286zM5.24 21.578a.143.143 0 1 0 0-.286.143.143 0 0 0 0 .286zM7.51 22.089c.079 0 .143-.039.143-.086 0-.047-.064-.085-.143-.085-.079 0-.143.038-.143.085 0 .047.064.086.143.086zM5.724 18.33a.114.114 0 1 0 0-.23.114.114 0 0 0 0 .23z"/><path fill="url(#aa)" d="M5.61 25.621c-.04.04-.146.16 0 .342.147.182 1.195.434 1.568.19.372-.246.085-.509-.141-.377-.514.301-1.012.13-1.084-.212-.087-.17-.286 0-.343.057z" opacity=".75" style="mix-blend-mode:overlay"/><path fill="url(#ab)" d="M4.99 27.602c-.57.616-1.476 1.966-.039 3.284.286-1.055.756-1.412.756-1.412s-1.318 2.54 1.974 3.313c-.81-1.64-.473-1.88-.473-1.88s1.307 1.665 2.688 1.247c-.964-.757-1.354-1.333-1.157-1.563.218.095.447.37 1.073.24-.37-.266-1.434-1.472-1.56-2.338-.052-.364-.06 1.188-.593 1.075-1.584-.336-.92-2.18-.978-2.456-.162-.029-.699 1.854-.86 1.81-1.114-.313-.551-1.62-.83-1.32z" opacity=".65" style="mix-blend-mode:overlay"/><path fill="url(#ac)" d="M4.052 30.578s-.89 2.313.975 3.72l-.274-.889s.785 2.24 2.992 2.125c-.392-.513-.342-.627-.342-.627s1.967 1.026 3.57.171C9.146 34.737 8.86 33.54 8.495 32.8c.364 1.196-1.175 2.05-2.195.513-1.02-1.539-1.046-1.88-1.046-1.88s-.219.284-.146 1.253c.072.968-1.212-.171-1.057-2.108z" opacity=".5" style="mix-blend-mode:overlay"/><path fill="url(#ad)" d="M17.58 19.152s2.34 5.273-.316 6.64a8.17 8.17 0 0 0-.32-1.95s-.006 2.748-.982 4.115c.108-.399-.218-1.937-.218-1.937s.065 3.076-1.432 3.247c-.01-.797.022-1.652-.467-1.936 0 .683-2.115 1.708-1.844 3.93 0 0-1.736-1.14-.705-2.62 1.03-1.481 3.146-3.361 4.286-5.583 1.139-2.222 1.557-4.45 1.999-3.906z" opacity=".65" style="mix-blend-mode:overlay"/><path fill="url(#ae)" d="M11.18 33.711s1.736.057 2.387-2.108c.325.74-.087 1.766-.396 2.108.25.114 2.892-2.45 3.326-4.785a3.36 3.36 0 0 1-.163 2.05s3.58-2.734 2.875-7.177c-.054.456-.868 3.304-1.682 3.646.272-1.082-2.061 2.05-2.712 3.418-.478.854-1.448 0-1.22-1.88.036-.293-.684 1.88-1.14 2.848-.463.981-1.275 1.88-1.275 1.88z" opacity=".5" style="mix-blend-mode:overlay"/><path fill="url(#af)" d="M17.251 17.533s1.312 1.595 1.312 3.247c.628-1.253.114-2.45-.285-2.677.799.113 1.826-1.937 3.366-1.31-.228-1.026-1.015-1.888-2.795-2.108-1.781-.22-3.196 1.082-1.598 2.848z" opacity=".4" style="mix-blend-mode:overlay"/><path fill="url(#ag)" d="M24.22 35.23c-.054-.264-.258-.74-.43-1.161-.398-.98-.885-2.329-.767-3.664.003-.039-.077-.067-.114-.08-.614-.223-.845-.337-.847-.338a.083.083 0 0 0-.038-.01.086.086 0 0 0-.087.086v1.31c-.996.678-7.335 5.08-10.558 5.184a.085.085 0 0 0-.075.05C9.671 40.166 9.053 42.19 8.7 43.28c-.07.216-.13.396-.183.544v.019a.416.416 0 0 1-.045.17l-.018.139a2.176 2.176 0 0 1-.03.16c-.01.048-.024.096-.04.144-.009.02-.017.041-.023.063l-.006.022a.32.32 0 0 1 0 .033c0 .018.008.096.016.09.147-.091 14.22-8.662 15.793-9.335a.086.086 0 0 0 .055-.097z"/><path fill="url(#ah)" d="M22.078 30.18v1.043l.342.153s-7.503 5.212-11.04 5.326c-3.138 6.836-3.024 7.89-3.024 7.89s14.179-8.659 15.776-9.343c-.171-.854-1.37-2.79-1.198-4.728-.628-.227-.856-.341-.856-.341z"/><path fill="url(#ai)" d="M8.356 44.591s14.179-8.658 15.776-9.342c-.082-.409-.4-1.067-.69-1.854-.186.295-.207.943-.366 1.455-.228.74-3.936 2.735-7.76 4.9-3.822 2.164-4.164 2.164-4.05.341.114-1.823.576-2.605 3.36-3.547 4.274-1.381 7.794-5.169 7.794-5.169s-7.503 5.213-11.04 5.327c-1.543 3.36-2.3 5.325-2.67 6.453-.384 1.164-.354 1.436-.354 1.436z"/><path fill="url(#aj)" d="M11.368 36.702a102.89 102.89 0 0 0-1.837 4.215h.182c.428-1.049 1-2.374 1.769-4.044 2.786-.09 8.032-3.343 10.134-4.72.507-.47.792-.778.792-.778s-7.503 5.213-11.04 5.327z"/><path fill="url(#ak)" d="M10.81 42.54c-.172-.456 0-1.823 0-1.823s-.343.342-.514.399c-.126.041-.742.482-1.13.76a30.77 30.77 0 0 0-.456 1.278c-.384 1.164-.354 1.437-.354 1.437s1.018-.623 2.54-1.545a1.43 1.43 0 0 0-.087-.506z" opacity=".85"/><path fill="url(#al)" d="M10.866 40.295c.004-.15-.032-.264-.107-.341a.416.416 0 0 0-.313-.114c-.24 0-.551.114-.824.228-.385.157-.627.54-.76.81l-.058.02a.73.73 0 0 1-.222.053.18.18 0 0 1-.06-.009.834.834 0 0 0-.25-.045.394.394 0 0 0-.136.022c-.223-.29-.585-.745-.836-.947-.272-.219-.545-.35-.73-.35a.265.265 0 0 0-.093.016c-.109.043-.12.214-.07 1.076l.017.29c.012.274.057.823.09 1.264.02.268.038.5.042.57v.056c0 .14 0 .372.138.513a.376.376 0 0 0 .278.105.794.794 0 0 0 .225-.036c.373-.115.714-.316.995-.587.052.008.104.011.156.011.23-.002.458-.049.67-.139.133.168.315.4.553.68.195.231.378.349.543.349a.345.345 0 0 0 .247-.108c.13-.133.204-.381.198-.664-.006-.27.078-.883.16-1.476.072-.511.139-.995.147-1.247z"/><path fill="url(#am)" d="M8.825 41.194s.25-.81.83-1.048c.581-.238 1.142-.399 1.126.146-.016.544-.317 2.215-.306 2.725.01.51-.268 1.041-.837.367-.568-.675-.798-1.026-.916-1.092-.119-.067-.287-.647.103-1.098z"/><path fill="url(#an)" d="M9.543 41.748c.261-.177-.48-.38-.342-.553.138-.174.601-.641.357-.747-.12-.05-.306.057-.457.185a2.37 2.37 0 0 0-.276.561c-.39.45-.221 1.029-.104 1.098.107.062.307.355.765.911a.224.224 0 0 0-.08-.15c-.178-.163-.324-.893-.311-1.12.013-.226.187-.006.448-.185z" opacity=".47" style="mix-blend-mode:multiply"/><path fill="url(#ao)" d="M8.252 41.23s-.645-.894-1.017-1.196c-.372-.302-.649-.356-.737-.321-.089.035-.022.824 0 1.282.02.448.124 1.657.132 1.832.007.16-.066.738.532.561.612-.18.922-.548 1.095-.683.173-.135.116-1.387-.005-1.474z"/><path fill="url(#ap)" d="M8.256 41.23s-.32-.444-.641-.813c-.14-.13-.681-.284-.468.285.221.598.634.855.381.951-.252.096-.315.432-.074.583.24.151.136.188.145.517.01.328-.151.603.386.191.12-.099.209-.188.276-.24.175-.133.116-1.387-.005-1.474z" opacity=".25" style="mix-blend-mode:multiply"/><path fill="url(#aq)" d="M8.493 41.022s-.349-.127-.426.07c-.077.197-.285 1.516-.029 1.66.256.144.866.007 1.015-.114.15-.12-.195-.504-.207-.824-.012-.32.087-.648.133-.815.046-.167-.273.1-.486.023z"/><path fill="url(#ar)" d="M8.178 41.06c-.048.024-.236.117.057.171.292.054.457-.114.457.285 0 .4.17-.228.17-.399 0-.084-.237.015-.399 0-.162-.015-.171-.114-.285-.057z" style="mix-blend-mode:overlay"/><path fill="url(#as)" d="M7.21 30.905s1.306 1.666 2.687 1.248c-.964-.757-1.354-1.333-1.157-1.563.218.095.447.37 1.073.24a2.373 2.373 0 0 1-.25-.22c-.286-.134-.671-.449-.923-.585-.39-.21-.124.95-.238 1.293-.114.341-1.198-.912-1.198-.912s-.343.399-.57 1.254c-1.085-.228-.68-2.424-.68-2.424s-.672.284-1.05.632c-.38.348-.475-1.475-.475-1.477-.349.684-.457 1.595.523 2.494.286-1.055.756-1.412.756-1.412s-1.318 2.54 1.974 3.313c-.81-1.64-.473-1.88-.473-1.88z"/><path fill="url(#at)" d="M10.967 35.079c-1.004-.188-1.54-.635-1.883-1.121-.094.249.228.551-.225.815-.429.25-1.883-.32-2.226-.549.685 1.083-1.084-.114-1.426-.57-.342-.455-.628-.626-.685-.284-.12.2-.468-.619-.663-1.12a2.88 2.88 0 0 0 1.166 2.048l-.277-.888s.785 2.238 2.992 2.124c-.392-.512-.342-.626-.342-.626s1.966 1.025 3.569.17z"/><g opacity=".65"><path fill="url(#au)" d="M18.361 21.641c.202 1.276-.996 3.712-.996 2.728 0-1.026-.934-1.887-.72-1.19.193.634-.264 3.348-.52 3.475.184-.79-.107-.727-.723-1.792.605 1.29-.433 2.925-.433 2.925.17-1.31-1.37-1.025-1.397-.732-.027.293-1.17 1.415-1.891 2.695-.266.471-.457.526-.599.408.267.674.92 1.104.92 1.104-.271-2.222 1.844-3.247 1.844-3.93.489.284.457 1.138.467 1.936 1.497-.17 1.432-3.247 1.432-3.247s.326 1.538.218 1.937c.976-1.367.982-4.115.982-4.115.185.634.292 1.29.32 1.95 1.425-.733 1.412-2.588 1.096-4.152z"/><path fill="url(#av)" d="M18.322 21.485a13 13 0 0 0-.045-.198c.012.067.027.133.045.198z"/></g><path fill="url(#aw)" d="M8.878 27.901s-.128 1.697 1.229 2.102c-.289-.672 0-1.586 0-1.586s1.16.851.704 1.478c.718-1.082 1.225-1.937.645-2.422 0 0 .073 1.226-.906.599-.98-.627-1.161-.306-1.103.33.058.638-.347.297-.569-.501z" opacity=".65" style="mix-blend-mode:overlay"/><path fill="url(#ax)" d="M11.673 28.282c-.086.114-.191.26-.307.414-.342.456-.741.057-1.14-.399-.4-.455-.628.57-.628 1.026 0 .29-.302-.021-.536-.3.165.406.473.807 1.045.977-.289-.671 0-1.585 0-1.585s1.161.85.704 1.477c.412-.62.753-1.166.862-1.61z"/><path fill="#fff" d="M31.416 18.34c0-.072.004-.145.003-.22-.027-.883-.723-2.32-2.286-3.81a13.511 13.511 0 0 0-1.591-1.395c.477-2.88.154-4.454-.669-6.233-2.148-4.985-7.92-5.788-11.74-6.32l-.71-.1h-.02c-.4-.03-.78-.045-1.132-.045-3.133 0-4.688 1.171-5.363 4.044-.47 1.921-.98 3.308-1.37 4.216-4.04.35-8.657 1.395-5.261 4.56.597.635 1.689 1.355 3.044 2.199l-.011.016a2.501 2.501 0 0 0-.252.484c-.237.597-.413 1.348.015 2.2.503 1.005.875 1.497.751 1.945-.057.205-.183.578-.303.922-.257.262-.475.595-.521 1.059-.042.413.372 1.154.98 1.464-.348.076-.627.301-.65.848-.058.74.342 1.14.056 1.424-.057.057-.399 0-.399-.797 0 0-.521 1.672.538 1.627-.22.415-.564 1.03-.909 1.477-.57.74-1.198 3.133-.285 5.298.057-.456.114-.57.114-.57s.513 2.849 2.225 3.19c-.057-.341-.114-.455-.114-.455.822.492 1.756.769 2.714.805l-2.316 1.082a.101.101 0 0 0-.057.075.1.1 0 0 0 .03.089c.286.265 1.05 1.078 1.636 2.812a2.655 2.655 0 0 0-.262-.251c-.271-.22-.544-.35-.73-.35a.265.265 0 0 0-.092.015c-.109.043-.12.214-.07 1.076l.017.29c.012.274.057.823.09 1.264.02.269.038.5.041.57v.056c0 .14 0 .372.138.513a.377.377 0 0 0 .279.105.794.794 0 0 0 .225-.036c.358-.108.686-.298.958-.554.062.498.107 1.036.13 1.617 0 .071.025.17.065.11 0-.003.005-.007.007-.01 0 .016.006.028.01.026.029-.018.611-.373 1.536-.934a.452.452 0 0 0 .21.057.342.342 0 0 0 .248-.109.7.7 0 0 0 .163-.328c4.039-2.45 12.44-7.514 13.636-8.024a.086.086 0 0 0 .05-.096c-.053-.264-.257-.74-.428-1.162-.4-.979-.886-2.328-.768-3.663.003-.039-.077-.067-.114-.08-.38-.138-.614-.235-.737-.288l.098-1.36a11.505 11.505 0 0 0 .476-.886l.057-.11.114-.232.057-.12.118-.247c.08-.17.16-.342.243-.525l.125-.274c.083-.185.171-.375.253-.57a74.99 74.99 0 0 0 .572-1.323l.125-.296c.083-.196.165-.39.244-.582l.118-.285c.194-.472.375-.92.534-1.322l.04-.101c.004 0 .009.005.014.009h.007l.01.005h.006l.01.005.009.003.01.003.012.005.009.003.01.003h.007l.012.004h.006l.012.003.025.007h.005l.01.003.034.008.023.005.028.007h.005l.026.005.023.004h.01l.03.006.02.003h.012l.052.01h.009l.09.014.024.003.053.008.025.003.057.007h.021l.066.008c.08.009.165.017.253.024h.004l.086.006h.008c1.774.114 4.977-.275 4.949-3.6-.003-.002-.004-.024-.005-.045z" opacity=".25" style="mix-blend-mode:overlay"/><defs><linearGradient gradientUnits="userSpaceOnUse" y2="17.07" x2="6.317" y1="17.07" x1="3.976" id="M"><stop stop-color="#421F04"/><stop stop-color="#662C00" offset=".86"/></linearGradient><linearGradient gradientUnits="userSpaceOnUse" y2="39.871" x2="11.405" y1="39.871" x1="5.897" id="b"><stop stop-color="#864716"/><stop stop-color="#A35B00" offset=".4"/><stop stop-color="#5E320F" offset=".93"/></linearGradient><linearGradient gradientUnits="userSpaceOnUse" y2="39.924" x2="11.744" y1="39.924" x1="7.719" id="d"><stop stop-color="#A35B00" offset=".23"/><stop stop-color="#662B00" offset=".7"/></linearGradient><linearGradient gradientUnits="userSpaceOnUse" y2="19.406" x2="18.099" y1="19.406" x1="4.07" id="e"><stop stop-color="#F09A33"/><stop stop-color="#FDEC8B" offset=".75"/><stop stop-color="#F2DDBD" offset="1"/></linearGradient><linearGradient gradientUnits="userSpaceOnUse" y2="20.143" x2="8.495" y1="20.143" x1="4.069" id="f"><stop stop-color="#fff"/><stop stop-opacity="0" stop-color="#fff" offset=".77"/></linearGradient><linearGradient gradientUnits="userSpaceOnUse" y2="18.474" x2="6.182" y1="18.474" x1="4.242" id="g"><stop stop-color="#955C19"/><stop stop-opacity=".5" stop-color="#F2990A" offset="1"/></linearGradient><linearGradient gradientUnits="userSpaceOnUse" y2="21.346" x2="32.528" y1="17.463" x1="6.117" id="h"><stop stop-color="#953819"/><stop stop-color="#954619" offset=".25"/><stop stop-opacity="0" stop-color="#F2CF6D" offset=".71"/></linearGradient><linearGradient gradientUnits="userSpaceOnUse" y2="32.881" x2="22.739" y1="32.881" x1="9.576" id="i"><stop stop-color="#DB8530" offset=".06"/><stop stop-color="#C47E2A" offset=".45"/><stop stop-color="#E2B75C" offset="1"/></linearGradient><linearGradient gradientUnits="userSpaceOnUse" y2="48.091" x2="21.611" y1="25.067" x1="15.184" id="j"><stop stop-color="#953819"/><stop stop-color="#954619" offset=".25"/><stop stop-opacity="0" stop-color="#F2CF6D" offset=".71"/></linearGradient><linearGradient gradientUnits="userSpaceOnUse" y2="17.55" x2="12.356" y1="17.55" x1="7.364" id="k"><stop stop-color="#753900"/><stop stop-opacity=".5" stop-color="#A65200" offset="1"/></linearGradient><linearGradient gradientUnits="userSpaceOnUse" y2="22.612" x2="8.478" y1="22.612" x1="4.484" id="l"><stop stop-color="#955C19"/><stop stop-opacity=".4" stop-color="#C98C2C" offset=".98"/></linearGradient><linearGradient gradientUnits="userSpaceOnUse" y2="28.166" x2="10.304" y1="30.13" x1="10.595" id="aw"><stop stop-color="#fff"/><stop stop-opacity="0" stop-color="#fff" offset="1"/></linearGradient><linearGradient gradientUnits="userSpaceOnUse" y2="16.601" x2="6.032" y1="18.727" x1="6.862" id="n"><stop stop-color="#955C19"/><stop stop-opacity=".5" stop-color="#F2990A" offset="1"/></linearGradient><linearGradient gradientUnits="userSpaceOnUse" y2="19.456" x2="9.345" y1="19.056" x1="6.406" id="o"><stop stop-color="#955C19"/><stop stop-opacity="0" stop-color="#F2D09A" offset="1"/></linearGradient><linearGradient gradientUnits="userSpaceOnUse" y2="20.66" x2="12.368" y1="28.758" x1="19.814" id="p"><stop stop-color="#542C0E"/><stop stop-color="#864716" offset=".87"/></linearGradient><linearGradient gradientUnits="userSpaceOnUse" y2="41.728" x2="8.988" y1="41.704" x1="7.806" id="aq"><stop stop-color="#FDEC8B"/><stop stop-color="#C47E2A" offset=".55"/><stop stop-color="#DB8530" offset=".94"/></linearGradient><linearGradient gradientUnits="userSpaceOnUse" y2="41.743" x2="7.564" y1="41.686" x1="7.283" id="ap"><stop stop-color="#954619"/><stop stop-color="#953819" offset=".78"/></linearGradient><linearGradient gradientUnits="userSpaceOnUse" y2="23.82" x2="22.967" y1="18.43" x1="20.648" id="s"><stop stop-color="#953819"/><stop stop-opacity=".55" stop-color="#954619" offset=".67"/></linearGradient><linearGradient gradientUnits="userSpaceOnUse" y2="19.294" x2="23.376" y1="19.294" x1="20.762" id="t"><stop stop-color="#955C19"/><stop stop-opacity=".4" stop-color="#C98C2C" offset=".98"/></linearGradient><linearGradient gradientUnits="userSpaceOnUse" y2="20.67" x2="21.718" y1="20.67" x1="20.445" id="u"><stop stop-color="#955C19"/><stop stop-opacity=".4" stop-color="#C98C2C" offset=".98"/></linearGradient><linearGradient gradientUnits="userSpaceOnUse" y2="7.31" x2="27.505" y1="7.31" x1="6.102" id="v"><stop stop-color="#FDEC8B"/><stop stop-color="#C47E2A" offset=".55"/><stop stop-color="#DB8530" offset=".94"/></linearGradient><linearGradient gradientUnits="userSpaceOnUse" y2="7.538" x2="27.512" y1="7.538" x1="16.164" id="w"><stop stop-color="#955C19"/><stop stop-opacity="0" stop-color="#F2D09A" offset=".74"/></linearGradient><linearGradient gradientUnits="userSpaceOnUse" y2="7.904" x2="25.015" y1="7.904" x1="19.195" id="x"><stop stop-opacity=".5" stop-color="#8A5706"/><stop stop-color="#955C19" offset="1"/></linearGradient><linearGradient gradientUnits="userSpaceOnUse" y2="8.058" x2="20.201" y1="7.199" x1="24.558" id="y"><stop stop-color="#C47E2A"/><stop stop-color="#FDEC8B" offset=".75"/><stop stop-color="#F2DDBD" offset="1"/></linearGradient><linearGradient gradientUnits="userSpaceOnUse" y2="10.046" x2="21.276" y1="6.116" x1="23.373" id="z"><stop stop-color="#C47E2A"/><stop stop-color="#FDEC8B" offset="1"/></linearGradient><linearGradient gradientUnits="userSpaceOnUse" y2="7.962" x2="20.669" y1="7.505" x1="22.978" id="A"><stop stop-color="#B35A11"/><stop stop-color="#B86115" offset=".16"/><stop stop-color="#C6741E" offset=".39"/><stop stop-color="#DC932E" offset=".67"/><stop stop-color="#FCBD45" offset=".97"/><stop stop-color="#FFC247" offset="1"/></linearGradient><linearGradient gradientUnits="userSpaceOnUse" y2="41.567" x2="8.366" y1="41.567" x1="6.453" id="ao"><stop stop-color="#FDEC8B"/><stop stop-color="#C47E2A" offset=".55"/><stop stop-color="#DB8530" offset=".94"/></linearGradient><linearGradient gradientUnits="userSpaceOnUse" y2="41.206" x2="9.325" y1="41.145" x1="8.32" id="an"><stop stop-color="#954619"/><stop stop-color="#953819" offset=".78"/></linearGradient><linearGradient gradientUnits="userSpaceOnUse" y2="10.413" x2="27.409" y1="10.413" x1="6.176" id="D"><stop stop-color="#864716"/><stop stop-color="#C47E2A" offset=".4"/><stop stop-color="#864716" offset=".93"/></linearGradient><linearGradient gradientUnits="userSpaceOnUse" y2="10.611" x2="27.387" y1="10.611" x1="6.102" id="E"><stop stop-color="#FDF6CD"/><stop stop-color="#FFA437" offset=".55"/><stop stop-color="#FFCA38" offset=".94"/></linearGradient><linearGradient gradientUnits="userSpaceOnUse" y2="41.282" x2="10.741" y1="41.154" x1="8.641" id="am"><stop stop-color="#FDEC8B" offset=".17"/><stop stop-color="#C47E2A" offset=".55"/><stop stop-color="#DB8530" offset=".94"/></linearGradient><linearGradient gradientUnits="userSpaceOnUse" y2="15.018" x2="31.417" y1="15.018" x1=".093" id="G"><stop stop-color="#5E320F"/><stop stop-color="#653811" offset=".08"/><stop stop-color="#7A4716" offset=".19"/><stop stop-color="#9B601F" offset=".33"/><stop stop-color="#C47E2A" offset=".47"/><stop stop-color="#5E320F" offset=".93"/></linearGradient><linearGradient gradientUnits="userSpaceOnUse" y2="22.942" x2="33.892" y1="7.943" x1="3.812" id="H"><stop stop-color="#FDEC8B"/><stop stop-color="#C47E2A" offset=".55"/><stop stop-color="#DB8530" offset=".94"/></linearGradient><linearGradient gradientUnits="userSpaceOnUse" y2="23.264" x2="34.208" y1="8.282" x1="4.161" id="I"><stop stop-color="#DB8530" offset=".06"/><stop stop-color="#C47E2A" offset=".45"/><stop stop-color="#E2B75C" offset="1"/></linearGradient><linearGradient gradientUnits="userSpaceOnUse" y2="23.267" x2="32.324" y1="9.679" x1="5.073" id="J"><stop stop-color="#955C19"/><stop stop-opacity=".65" stop-color="#7D4E03" offset=".74"/></linearGradient><linearGradient gradientUnits="userSpaceOnUse" y2="22.748" x2="30.738" y1="10.412" x1="5.998" id="K"><stop stop-color="#955C19"/><stop stop-opacity=".65" stop-color="#7D4E03" offset=".74"/></linearGradient><linearGradient gradientUnits="userSpaceOnUse" y2="16.201" x2="13.067" y1="16.201" x1="6.82" id="L"><stop stop-color="#381A01"/><stop stop-color="#662D00" offset=".87"/></linearGradient><linearGradient gradientUnits="userSpaceOnUse" y2="39.949" x2="11.924" y1="39.949" x1="6.393" id="c"><stop stop-color="#DB8530" offset=".06"/><stop stop-color="#C47E2A" offset=".45"/><stop stop-color="#E2B75C" offset="1"/></linearGradient><linearGradient gradientUnits="userSpaceOnUse" y2="18.365" x2="6.536" y1="22.911" x1="4.516" id="N"><stop stop-color="#fff"/><stop stop-opacity="0" stop-color="#fff" offset="1"/></linearGradient><linearGradient gradientUnits="userSpaceOnUse" y2="13.631" x2="10.95" y1="17.288" x1="8.89" id="O"><stop stop-color="#fff"/><stop stop-opacity="0" stop-color="#fff" offset="1"/></linearGradient><linearGradient gradientUnits="userSpaceOnUse" y2="14.058" x2="10.92" y1="16.633" x1="9.508" id="P"><stop stop-color="#fff"/><stop stop-opacity="0" stop-color="#fff" offset="1"/></linearGradient><linearGradient gradientUnits="userSpaceOnUse" y2="16.609" x2="12.047" y1="17.921" x1="10.989" id="Q"><stop stop-color="#fff"/><stop stop-opacity="0" stop-color="#fff" offset="1"/></linearGradient><linearGradient gradientUnits="userSpaceOnUse" y2="15.242" x2="5.13" y1="16.796" x1="4.439" id="R"><stop stop-color="#fff"/><stop stop-opacity="0" stop-color="#fff" offset="1"/></linearGradient><linearGradient gradientUnits="userSpaceOnUse" y2="25.898" x2="8.193" y1="22.276" x1="8.018" id="S"><stop stop-color="#542C0E"/><stop stop-color="#864716" offset=".87"/></linearGradient><linearGradient gradientUnits="userSpaceOnUse" y2="41.705" x2="10.866" y1="41.705" x1="6.38" id="al"><stop stop-color="#864716"/><stop stop-color="#A35B00" offset=".4"/><stop stop-color="#864716" offset=".84"/></linearGradient><linearGradient gradientUnits="userSpaceOnUse" y2="42.654" x2="10.896" y1="42.654" x1="8.355" id="ak"><stop stop-color="#864716"/><stop stop-color="#A35B00" offset=".4"/><stop stop-color="#864716" offset=".84"/></linearGradient><linearGradient gradientUnits="userSpaceOnUse" y2="37.386" x2="24.132" y1="37.386" x1="8.355" id="ah"><stop stop-color="#FDEC8B"/><stop stop-color="#C47E2A" offset=".55"/><stop stop-color="#DB8530" offset=".94"/></linearGradient><linearGradient gradientUnits="userSpaceOnUse" y2="37.32" x2="24.219" y1="37.32" x1="8.252" id="ag"><stop stop-color="#864716"/><stop stop-color="#A35B00" offset=".4"/><stop stop-color="#5E320F" offset=".93"/></linearGradient><linearGradient gradientUnits="userSpaceOnUse" y2="16.093" x2="18.037" y1="18.249" x1="19.84" id="af"><stop stop-color="#fff"/><stop stop-opacity="0" stop-color="#fff" offset="1"/></linearGradient><linearGradient gradientUnits="userSpaceOnUse" y2="27.2" x2="15.271" y1="33.279" x1="15.184" id="ae"><stop stop-color="#fff"/><stop stop-opacity="0" stop-color="#fff" offset="1"/></linearGradient><linearGradient gradientUnits="userSpaceOnUse" y2="25.091" x2="14.649" y1="26.898" x1="17.094" id="ad"><stop stop-color="#fff"/><stop stop-opacity="0" stop-color="#fff" offset="1"/></linearGradient><linearGradient gradientUnits="userSpaceOnUse" y2="25.872" x2="7.357" y1="25.872" x1="5.535" id="aa"><stop stop-color="#fff"/><stop stop-opacity="0" stop-color="#fff" offset="1"/></linearGradient><linearGradient gradientUnits="userSpaceOnUse" y2="30.021" x2="10.116" y1="30.39" x1="4.588" id="ab"><stop stop-color="#fff"/><stop stop-opacity="0" stop-color="#fff" offset="1"/></linearGradient><linearGradient gradientUnits="userSpaceOnUse" y2="33.058" x2="10.86" y1="33.058" x1="3.734" id="ac"><stop stop-color="#fff"/><stop stop-opacity="0" stop-color="#fff" offset="1"/></linearGradient><radialGradient gradientTransform="matrix(7.04188 0 0 7.03068 22.509 9.472)" gradientUnits="userSpaceOnUse" r="1" cy="0" cx="0" id="C"><stop stop-color="#fff"/><stop stop-opacity="0" stop-color="#fff" offset="1"/></radialGradient><radialGradient gradientTransform="matrix(1.3258 0 0 1.40819 5.595 24.262)" gradientUnits="userSpaceOnUse" r="1" cy="0" cx="0" id="Z"><stop stop-color="#fff"/><stop stop-opacity=".25" stop-color="#fff" offset="1"/></radialGradient><radialGradient gradientTransform="matrix(1.76988 0 0 1.76707 4.89 23.72)" gradientUnits="userSpaceOnUse" r="1" cy="0" cx="0" id="X"><stop stop-color="#fff"/><stop stop-opacity=".25" stop-color="#fff" offset="1"/></radialGradient><radialGradient gradientTransform="matrix(2.61032 0 0 2.60617 9.25 23.554)" gradientUnits="userSpaceOnUse" r="1" cy="0" cx="0" id="W"><stop stop-color="#fff"/><stop stop-opacity=".25" stop-color="#fff" offset="1"/></radialGradient><radialGradient gradientTransform="matrix(1.79099 0 0 1.85967 4.924 23.762)" gradientUnits="userSpaceOnUse" r="1" cy="0" cx="0" id="V"><stop stop-color="#fff"/><stop stop-opacity=".25" stop-color="#fff" offset="1"/></radialGradient><radialGradient gradientTransform="matrix(7.27124 0 0 7.25968 14.633 33.237)" gradientUnits="userSpaceOnUse" r="1" cy="0" cx="0" id="ai"><stop stop-color="#fff"/><stop stop-opacity=".25" stop-color="#fff" offset="1"/></radialGradient><radialGradient gradientTransform="matrix(6.958 0 0 6.94694 11.667 36.67)" gradientUnits="userSpaceOnUse" r="1" cy="0" cx="0" id="aj"><stop stop-color="#fff"/><stop stop-opacity=".25" stop-color="#fff" offset="1"/></radialGradient><radialGradient gradientTransform="matrix(2.946 0 0 2.59052 9.376 23.603)" gradientUnits="userSpaceOnUse" r="1" cy="0" cx="0" id="U"><stop stop-color="#fff"/><stop stop-opacity=".25" stop-color="#fff" offset="1"/></radialGradient><radialGradient gradientTransform="matrix(2.23888 0 0 2.23533 11.076 19.936)" gradientUnits="userSpaceOnUse" r="1" cy="0" cx="0" id="T"><stop stop-color="#fff"/><stop stop-opacity="0" stop-color="#fff" offset="1"/></radialGradient><radialGradient gradientTransform="matrix(7.75622 0 0 7.74389 16.715 7.83)" gradientUnits="userSpaceOnUse" r="1" cy="0" cx="0" id="F"><stop stop-color="#fff"/><stop stop-opacity="0" stop-color="#fff" offset="1"/></radialGradient><radialGradient gradientTransform="matrix(1.55707 0 0 1.55459 7.531 24.223)" gradientUnits="userSpaceOnUse" r="1" cy="0" cx="0" id="Y"><stop stop-color="#fff"/><stop stop-opacity=".25" stop-color="#fff" offset="1"/></radialGradient><radialGradient gradientTransform="matrix(4.57705 0 0 4.56977 18.75 6.428)" gradientUnits="userSpaceOnUse" r="1" cy="0" cx="0" id="B"><stop stop-color="#fff"/><stop stop-opacity="0" stop-color="#fff" offset="1"/></radialGradient><radialGradient gradientTransform="matrix(3.04737 0 0 5.99378 19.066 21.568)" gradientUnits="userSpaceOnUse" r="1" cy="0" cx="0" id="r"><stop stop-color="#773E15" offset=".06"/><stop stop-color="#7E4317" offset=".15"/><stop stop-color="#92521D" offset=".29"/><stop stop-color="#B26B26" offset=".46"/><stop stop-color="#DF8C32" offset=".65"/><stop stop-color="#E89335" offset=".69"/></radialGradient><radialGradient gradientTransform="matrix(8.3245 0 0 8.31127 14.546 18.681)" gradientUnits="userSpaceOnUse" r="1" cy="0" cx="0" id="q"><stop stop-opacity="0" stop-color="#F2CF6D"/><stop stop-opacity="0" stop-color="#F2CF6D" offset=".62"/><stop stop-color="#954619" offset=".7"/><stop stop-color="#953819" offset=".76"/></radialGradient><radialGradient gradientTransform="matrix(.35124 0 0 .35059 8.376 41.126)" gradientUnits="userSpaceOnUse" r="1" cy="0" cx="0" id="ar"><stop stop-color="#fff"/><stop stop-opacity=".98" stop-color="#fff" offset=".12"/><stop stop-opacity=".92" stop-color="#fff" offset=".26"/><stop stop-opacity=".82" stop-color="#fff" offset=".43"/><stop stop-opacity=".68" stop-color="#fff" offset=".6"/><stop stop-opacity=".5" stop-color="#fff" offset=".79"/><stop stop-opacity=".28" stop-color="#fff" offset=".98"/><stop stop-opacity=".25" stop-color="#fff" offset="1"/></radialGradient><radialGradient gradientTransform="matrix(2.55098 0 0 2.54693 7.039 30.589)" gradientUnits="userSpaceOnUse" r="1" cy="0" cx="0" id="as"><stop stop-color="#FF9F03"/><stop stop-opacity=".25" stop-color="#FF9E00" offset="1"/></radialGradient><radialGradient gradientTransform="matrix(2.77065 0 0 2.76625 7.412 33.894)" gradientUnits="userSpaceOnUse" r="1" cy="0" cx="0" id="at"><stop stop-color="#FF9F03"/><stop stop-opacity=".25" stop-color="#FF9E00" offset="1"/></radialGradient><radialGradient gradientTransform="matrix(4.3066 0 0 4.29976 14.809 26.452)" gradientUnits="userSpaceOnUse" r="1" cy="0" cx="0" id="au"><stop stop-color="#FF9F03"/><stop stop-opacity=".25" stop-color="#FF9E00" offset="1"/></radialGradient><radialGradient gradientTransform="matrix(.07145 0 0 .07195 18.3 21.387)" gradientUnits="userSpaceOnUse" r="1" cy="0" cx="0" id="av"><stop stop-color="#FF9F03"/><stop stop-opacity=".25" stop-color="#FF9E00" offset="1"/></radialGradient><radialGradient gradientTransform="matrix(1.48745 0 0 1.48614 7.16 22.235)" gradientUnits="userSpaceOnUse" r="1" cy="0" cx="0" id="m"><stop stop-color="#fff"/><stop stop-opacity="0" stop-color="#fff" offset="1"/></radialGradient><radialGradient gradientTransform="matrix(1.12515 0 0 1.12336 10.62 30.585)" gradientUnits="userSpaceOnUse" r="1" cy="0" cx="0" id="ax"><stop stop-color="#FF9F03"/><stop stop-opacity=".25" stop-color="#FF9E00" offset="1"/></radialGradient></defs></g><g style="transform:translateY(-7px)"><path fill="url(#ay)" d="M60.004 29.891h50.454v.808H60.004z"/><linearGradient gradientUnits="userSpaceOnUse" y2="31.009" x2="101.435" y1="30.006" x1="101.448" id="ay"><stop stop-color="#FFF6A2"/><stop stop-color="#CF984B" offset="1"/></linearGradient><path fill="url(#az)" d="M61.879 42.314v-7.179h1.028v6.301h3.464v.878h-4.492zm5.28 0v-5.277h1.014v5.277h-1.014zm.51-6.306c-.22 0-.387-.051-.5-.155a.55.55 0 0 1-.17-.427c0-.187.056-.333.17-.436.113-.104.28-.156.5-.156.222 0 .389.052.499.156.113.103.17.249.17.436a.55.55 0 0 1-.17.427c-.11.104-.277.155-.5.155zm3.197 6.306-1.955-5.277h1.072l1.605 4.516h-.101l1.605-4.516h1.009l-1.95 5.277h-1.285zm6.286.097c-.582 0-1.069-.094-1.46-.281a1.838 1.838 0 0 1-.873-.883c-.194-.404-.291-.928-.291-1.572 0-.608.089-1.112.267-1.513.18-.404.438-.707.771-.907.333-.2.73-.3 1.193-.3.453 0 .836.1 1.15.3.317.2.556.504.718.912.165.404.247.915.247 1.533v.29h-3.783v-.64h3.022l-.194.107c0-.446-.046-.802-.136-1.067-.09-.265-.223-.454-.398-.568a1.12 1.12 0 0 0-.635-.174c-.25 0-.465.056-.645.17-.178.113-.316.302-.413.567-.097.265-.145.623-.145 1.072v.379c0 .436.06.785.18 1.047.119.259.306.445.562.558.255.113.587.17.994.17.2 0 .41-.016.63-.049.22-.035.45-.085.69-.15v.795c-.262.072-.511.123-.747.156-.236.032-.471.048-.704.048zm7.009-.034c-.184 0-.374-.005-.568-.014-.19-.007-.386-.018-.587-.034a11.5 11.5 0 0 1-.625-.059v-7.004c.203-.042.417-.078.64-.107a9.583 9.583 0 0 1 1.358-.097c1.222 0 2.144.3 2.765.898.62.595.931 1.516.931 2.765 0 .847-.145 1.54-.436 2.08a2.656 2.656 0 0 1-1.31 1.189c-.579.255-1.302.383-2.168.383zm.233-.858c.585 0 1.072-.094 1.46-.282.388-.19.679-.491.873-.902.194-.41.29-.949.29-1.615 0-.66-.095-1.195-.285-1.606a1.83 1.83 0 0 0-.864-.907c-.381-.194-.86-.29-1.436-.29-.158 0-.326.007-.504.023a5.536 5.536 0 0 0-.52.063v5.462a8.452 8.452 0 0 0 .985.053zm7.206.892c-.582 0-1.069-.094-1.46-.281a1.837 1.837 0 0 1-.873-.883c-.194-.404-.291-.928-.291-1.572 0-.608.089-1.112.267-1.513.18-.404.438-.707.77-.907.334-.2.732-.3 1.194-.3.453 0 .836.1 1.15.3.317.2.556.504.718.912.165.404.247.915.247 1.533v.29h-3.784v-.64h3.022l-.194.107c0-.446-.045-.802-.135-1.067-.091-.265-.224-.454-.398-.568a1.12 1.12 0 0 0-.636-.174c-.249 0-.464.056-.645.17-.178.113-.315.302-.412.567-.097.265-.146.623-.146 1.072v.379c0 .436.06.785.18 1.047.12.259.307.445.563.558.255.113.586.17.994.17.2 0 .41-.016.63-.049.22-.035.45-.085.69-.15v.795a5.935 5.935 0 0 1-.748.156c-.236.032-.47.048-.703.048zm4.074-.01c-.511 0-.912-.13-1.203-.392-.288-.262-.432-.62-.432-1.072 0-.47.159-.836.476-1.101.317-.266.824-.429 1.523-.49l1.324-.131.102.616-1.339.135c-.382.04-.656.131-.825.277-.165.142-.247.343-.247.601 0 .262.076.464.228.607.155.139.382.208.68.208.206 0 .413-.042.62-.126.207-.084.393-.225.558-.422V38.9c0-.297-.047-.528-.14-.693a.768.768 0 0 0-.433-.35 2.281 2.281 0 0 0-.742-.102c-.2 0-.427.018-.679.054a4.318 4.318 0 0 0-.747.175v-.796c.236-.078.496-.136.781-.175.285-.038.552-.058.8-.058.482 0 .882.063 1.199.19.32.122.557.33.713.62.158.291.237.689.237 1.194v3.356h-.839l-.073-.567h-.058a1.57 1.57 0 0 1-.645.49c-.259.11-.538.164-.84.164zm3.772-.087v-7.839h1.014v7.84h-1.014zm4.735.097c-.582 0-1.068-.094-1.46-.281a1.838 1.838 0 0 1-.873-.883c-.194-.404-.291-.928-.291-1.572 0-.608.089-1.112.267-1.513.181-.404.438-.707.771-.907.333-.2.731-.3 1.193-.3.453 0 .836.1 1.15.3.317.2.556.504.718.912.165.404.247.915.247 1.533v.29h-3.783v-.64h3.022l-.194.107c0-.446-.046-.802-.136-1.067-.091-.265-.223-.454-.398-.568a1.117 1.117 0 0 0-.635-.174c-.249 0-.464.056-.645.17-.178.113-.316.302-.413.567-.097.265-.145.623-.145 1.072v.379c0 .436.06.785.179 1.047.12.259.307.445.563.558.255.113.587.17.994.17.201 0 .411-.016.631-.049a6.86 6.86 0 0 0 .689-.15v.795a5.935 5.935 0 0 1-.747.156 5.19 5.19 0 0 1-.704.048zm2.759-.097v-5.277h.839l.082.698h.054c.171-.252.389-.441.655-.567.265-.127.546-.19.844-.19.077 0 .152.004.223.01.071.007.137.016.199.03v.926a1.918 1.918 0 0 0-.238-.025 2.86 2.86 0 0 0-.238-.01c-.168 0-.341.027-.519.078a1.79 1.79 0 0 0-.494.224 1.42 1.42 0 0 0-.393.373v3.73h-1.014z"/><linearGradient gradientUnits="userSpaceOnUse" y2="48.475" x2="100.986" y1="34.073" x1="101.896" id="az"><stop stop-color="#FFF6A2" offset=".448"/><stop stop-color="#AF5F00" offset="1"/></linearGradient><path fill="url(#aA)" d="M60.614 27v-1.937c.232.02.503.02.736.02.678 0 1.22-.252 1.22-1.298V13.443h2.13V23.63c0 2.712-1.452 3.409-3.06 3.409-.387 0-.678 0-1.026-.039zm10.261-13.557L73.045 27h-2.15l-.368-2.46h-2.615L67.544 27h-1.956l2.17-13.557h3.117zm-1.665 2.402L68.183 22.7h2.053l-1.026-6.856zm8.971 6.1h2.014v1.802c0 2.169-1.084 3.408-3.176 3.408-2.091 0-3.176-1.24-3.176-3.409v-7.049c0-2.169 1.085-3.408 3.176-3.408 2.092 0 3.176 1.239 3.176 3.408v1.317h-2.014v-1.453c0-.968-.426-1.336-1.104-1.336-.677 0-1.103.368-1.103 1.336v7.321c0 .968.426 1.317 1.103 1.317.678 0 1.104-.349 1.104-1.317v-1.937zM86.35 27l-2.072-5.403-.659 1.24V27h-2.13V13.443h2.13v5.907l2.79-5.907h2.13l-2.964 6.043L88.537 27H86.35zm2.538-11.62v-1.937h6.585v1.937h-2.227V27h-2.13V15.38h-2.228zm9.48 1.181v7.321c0 .968.425 1.336 1.103 1.336.678 0 1.104-.368 1.104-1.336v-7.32c0-.969-.426-1.337-1.104-1.337-.678 0-1.104.368-1.104 1.336zm-2.131 7.186v-7.05c0-2.169 1.142-3.408 3.234-3.408s3.234 1.239 3.234 3.408v7.05c0 2.169-1.142 3.408-3.234 3.408-2.091 0-3.234-1.24-3.234-3.409zm10.99-10.304c2.13 0 3.176 1.182 3.176 3.35v1.763c0 2.17-1.046 3.35-3.176 3.35h-1.007V27h-2.13V13.443h3.137zm0 1.937h-1.007v4.59h1.007c.678 0 1.046-.31 1.046-1.278v-2.034c0-.968-.368-1.278-1.046-1.278z"/><linearGradient gradientUnits="userSpaceOnUse" y2="32.948" x2="85.517" y1="13" x1="85.517" id="aA"><stop stop-color="#FFF9A3"/><stop stop-color="#BE752B" offset="1"/></linearGradient></g></svg>