<svg xmlns="http://www.w3.org/2000/svg" viewBox="0 0 24 24" width="24" height="24" color="#f975e5" fill="#f975e5">
    <path d="M5.95704 2.27598C7.01305 2.36353 8.34805 2.66953 10.0225 3.05137L11.0234 3.27989C12.1224 3.5305 13.012 3.73177 13.7041 3.97911C14.4146 4.23305 14.9994 4.56202 15.4453 5.11583C16.0679 5.88928 16.2043 6.83721 16.2461 8.01329C16.2608 8.42724 15.9364 8.77496 15.5225 8.78965C15.1087 8.80421 14.761 8.48072 14.7461 8.067C14.7055 6.92202 14.5678 6.41827 14.2764 6.05626C14.0692 5.79905 13.7685 5.59468 13.1992 5.39122C12.6111 5.18103 11.8242 5.00058 10.6895 4.7418L9.68848 4.51329C7.96881 4.12113 6.75752 3.84676 5.833 3.77012C4.92788 3.6951 4.44612 3.82534 4.09376 4.10215C3.74334 4.37762 3.50881 4.80807 3.37989 5.692C3.24793 6.59713 3.2461 7.82329 3.2461 9.56797V14.4312C3.2461 16.1759 3.24795 17.4021 3.37989 18.3072C3.50879 19.1912 3.74337 19.6216 4.09376 19.8971C4.44613 20.1739 4.92777 20.3041 5.833 20.2291C6.75753 20.1525 7.9688 19.8781 9.68848 19.4859L10.6895 19.2574C11.8243 18.9986 12.6111 18.8182 13.1992 18.608C13.7686 18.4045 14.0692 18.2002 14.2764 17.943C14.5678 17.5809 14.7055 17.0772 14.7461 15.9322C14.7611 15.5186 15.1088 15.195 15.5225 15.2096C15.9363 15.2243 16.2607 15.5721 16.2461 15.9859C16.2044 17.162 16.0678 18.1099 15.4453 18.8834C14.9994 19.4373 14.4146 19.7662 13.7041 20.0201C13.012 20.2675 12.1224 20.4687 11.0234 20.7193L10.0225 20.9478C8.34803 21.3297 7.01307 21.6357 5.95704 21.7232C4.88194 21.8124 3.9475 21.6901 3.16602 21.0758C2.38299 20.4599 2.05005 19.5837 1.89551 18.524C1.74407 17.4852 1.7461 16.1285 1.7461 14.4312V9.56797C1.7461 7.87066 1.74404 6.51398 1.89551 5.4752C2.05007 4.41561 2.38297 3.53924 3.16602 2.92344C3.94748 2.30918 4.882 2.18687 5.95704 2.27598ZM17.8926 8.567C18.1382 8.23366 18.607 8.16239 18.9404 8.40782C18.9409 8.40817 18.9435 8.40914 18.9443 8.40977C18.946 8.41098 18.9484 8.41259 18.9512 8.41465C18.9574 8.41924 18.9661 8.42662 18.9775 8.43516C19.0007 8.45242 19.0348 8.47741 19.0772 8.50938C19.1618 8.57333 19.2818 8.66556 19.4258 8.77793C19.7133 9.0023 20.0993 9.31211 20.4873 9.64903C20.8716 9.98273 21.2764 10.3577 21.5899 10.7125C21.7457 10.8889 21.8952 11.0782 22.0098 11.2682C22.1119 11.4376 22.246 11.7038 22.2461 12.0113C22.2461 12.3189 22.1119 12.585 22.0098 12.7545C21.8953 12.9444 21.7457 13.1337 21.5899 13.3102C21.2764 13.6649 20.8717 14.0409 20.4873 14.3746C20.0994 14.7114 19.7132 15.0204 19.4258 15.2447C19.2818 15.3571 19.1618 15.4493 19.0772 15.5133C19.0348 15.5452 19.0007 15.5702 18.9775 15.5875C18.9661 15.596 18.9574 15.6034 18.9512 15.608C18.9482 15.6102 18.9451 15.6117 18.9434 15.6129L18.9414 15.6148C18.6079 15.8604 18.1382 15.7892 17.8926 15.4557C17.6471 15.1221 17.7183 14.6534 18.0518 14.4078L18.0527 14.4068C18.0539 14.4059 18.0561 14.4038 18.0586 14.4019C18.0637 14.3982 18.072 14.3929 18.082 14.3853C18.1028 14.3699 18.1333 14.3459 18.1729 14.316C18.2522 14.2561 18.366 14.169 18.5029 14.0621C18.7778 13.8476 19.1422 13.5558 19.5039 13.2418C19.6884 13.0816 19.8686 12.9189 20.0332 12.7613H8.4961C8.08189 12.7613 7.7461 12.4255 7.7461 12.0113C7.74622 11.5972 8.08195 11.2613 8.4961 11.2613H20.0332C19.8686 11.1037 19.6884 10.9411 19.5039 10.7809C19.1422 10.4668 18.7778 10.175 18.5029 9.96055C18.366 9.85369 18.2522 9.76654 18.1729 9.70665C18.1333 9.67677 18.1028 9.65278 18.082 9.63731C18.0719 9.6298 18.0637 9.62448 18.0586 9.62071C18.0561 9.61884 18.0539 9.61668 18.0527 9.61583L18.0518 9.61485C17.7184 9.36922 17.6471 8.90048 17.8926 8.567Z" fill="currentColor"/>
</svg>