<svg xmlns="http://www.w3.org/2000/svg" viewBox="0 0 24 24" width="24" height="24" color="#000000" fill="none">
    <defs />
    <path fill="currentColor" d="M16.141,2.366 C17.041,2.487 17.799,2.746 18.401,3.347 C19.003,3.949 19.262,4.707 19.383,5.607 C19.446,6.082 19.475,6.628 19.488,7.249 L19.8,7.249 C20.464,7.249 21.036,7.249 21.495,7.311 C21.987,7.377 22.458,7.526 22.84,7.908 C23.222,8.29 23.371,8.762 23.438,9.253 C23.489,9.636 23.497,10.097 23.499,10.625 L23.499,10.95 L23.499,18.999 C23.499,20.518 22.268,21.749 20.749,21.749 L8.694,21.749 C7.327,21.749 6.224,21.749 5.357,21.633 C4.457,21.512 3.699,21.253 3.097,20.651 C2.495,20.049 2.237,19.291 2.116,18.391 C2.022,17.697 2.004,16.853 2,15.843 L2,8.155 C2.004,7.145 2.022,6.301 2.116,5.607 C2.237,4.707 2.495,3.949 3.097,3.347 C3.699,2.746 4.457,2.487 5.357,2.366 C6.051,2.272 6.895,2.254 7.905,2.25 L13.593,2.25 C14.603,2.254 15.447,2.272 16.141,2.366 Z M13.381,3.75 L8.117,3.75 C7.011,3.752 6.196,3.766 5.557,3.852 C4.823,3.951 4.435,4.131 4.158,4.408 C3.881,4.685 3.701,5.073 3.602,5.807 C3.516,6.446 3.502,7.261 3.5,8.367 L3.5,15.631 C3.502,16.737 3.516,17.552 3.602,18.191 C3.701,18.925 3.881,19.313 4.158,19.59 C4.435,19.867 4.823,20.047 5.557,20.146 C6.313,20.247 7.314,20.249 8.749,20.249 L18.299,20.249 C18.107,19.874 17.999,19.449 17.999,18.999 L17.999,8.926 C17.999,7.529 17.996,6.55 17.896,5.807 C17.797,5.073 17.617,4.685 17.34,4.408 C17.063,4.131 16.675,3.951 15.941,3.852 C15.302,3.766 14.487,3.752 13.381,3.75 Z M20.198,8.75 L19.499,8.749 L19.499,18.999 C19.499,19.689 20.058,20.248 20.747,20.249 C21.44,20.249 21.999,19.69 21.999,18.999 L21.999,10.999 C21.999,10.271 21.997,9.8 21.951,9.453 C21.907,9.128 21.837,9.026 21.779,8.969 C21.722,8.912 21.62,8.841 21.295,8.797 C21.025,8.761 20.681,8.752 20.198,8.75 Z M15.499,7.999 C15.499,8.413 15.163,8.749 14.749,8.749 L6.749,8.749 C6.335,8.749 5.999,8.413 5.999,7.999 C5.999,7.585 6.335,7.249 6.749,7.249 L14.749,7.249 C15.163,7.249 15.499,7.585 15.499,7.999 Z M14.749,12.749 L6.749,12.749 C6.335,12.749 5.999,12.413 5.999,11.999 C5.999,11.585 6.335,11.249 6.749,11.249 L14.749,11.249 C15.163,11.249 15.499,11.585 15.499,11.999 C15.499,12.413 15.163,12.749 14.749,12.749 Z M11.499,15.999 C11.499,16.413 11.163,16.749 10.749,16.749 L6.749,16.749 C6.335,16.749 5.999,16.413 5.999,15.999 C5.999,15.585 6.335,15.249 6.749,15.249 L10.749,15.249 C11.163,15.249 11.499,15.585 11.499,15.999 Z" />
</svg>