<svg xmlns="http://www.w3.org/2000/svg" viewBox="0 0 24 24" width="24" height="24" color="#c706fd" fill="#c706fd">
    <defs />
    <path fill="currentColor" d="M2.75,12 C2.75,17.109 6.891,21.25 12,21.25 C17.109,21.25 21.25,17.109 21.25,12 C21.25,11.687 21.235,11.378 21.204,11.074 C21.163,10.662 21.464,10.295 21.876,10.254 C22.289,10.213 22.656,10.514 22.697,10.926 C22.732,11.279 22.75,11.638 22.75,12 C22.75,17.937 17.937,22.75 12,22.75 C6.063,22.75 1.25,17.937 1.25,12 C1.25,6.063 6.063,1.25 12,1.25 C14.527,1.25 16.852,2.123 18.688,3.583 C19.078,3.371 19.525,3.25 20,3.25 C21.519,3.25 22.75,4.481 22.75,6 C22.75,6.998 22.218,7.871 21.425,8.352 C21.009,8.605 20.52,8.75 20,8.75 C18.481,8.75 17.25,7.519 17.25,6 C17.25,5.507 17.38,5.043 17.608,4.643 C16.052,3.455 14.109,2.75 12,2.75 C6.891,2.75 2.75,6.891 2.75,12 Z M12,6.25 C15.176,6.25 17.75,8.824 17.75,12 C17.75,15.176 15.176,17.75 12,17.75 C8.824,17.75 6.25,15.176 6.25,12 C6.25,8.824 8.824,6.25 12,6.25 Z M7.75,12 C7.75,14.347 9.653,16.25 12,16.25 C14.347,16.25 16.25,14.347 16.25,12 C16.25,9.653 14.347,7.75 12,7.75 C9.653,7.75 7.75,9.653 7.75,12 Z M19.154,5.08 C18.905,5.309 18.75,5.636 18.75,6 C18.75,6.69 19.31,7.25 20,7.25 C20.238,7.25 20.459,7.184 20.647,7.07 C21.01,6.85 21.25,6.452 21.25,6 C21.25,5.31 20.69,4.75 20,4.75 C19.673,4.75 19.377,4.874 19.154,5.08 Z" />
</svg>