<svg xmlns="http://www.w3.org/2000/svg" viewBox="0 0 24 24" width="24" height="24" color="#5bf9ed" fill="#5bf9ed">
    <path fill-rule="evenodd" clip-rule="evenodd" d="M2.97998 17.62C5.10998 18.09 6.73996 18.25 8.07996 18.25V18.26C9.63996 18.26 10.82 18.04 11.98 17.82L11.9869 17.8187L11.9869 17.8187C13.1548 17.5991 14.3732 17.37 16 17.37C17.27 17.37 18.46 17.48 19.54 17.68C20.32 17.83 21.18 17.6 21.83 17.06C22.42 16.57 22.75 15.89 22.75 15.19V13.51V7.97V5.42999C22.75 4.50999 22.18 3.72001 21.35 3.46001C20.31 3.14001 18.54 2.75 16 2.75C14.2437 2.75 12.9698 2.98631 11.7387 3.21467L11.71 3.22C10.124 3.52438 8.60225 3.80951 6.09627 3.52037C6.0778 3.51625 6.05905 3.51278 6.04004 3.50999C6.00772 3.50526 5.97558 3.50271 5.94378 3.50222C5.36244 3.43087 4.72868 3.329 4.03003 3.19C3.33003 3.06 2.61996 3.22999 2.07996 3.67999C1.54996 4.11999 1.25 4.74999 1.25 5.42999V7.5V13V15.45C1.25 16.48 1.97998 17.4 2.97998 17.62ZM21.24 8.62881V12.818C19.4269 13.0963 17.9081 14.3451 17.4659 15.915C16.9852 15.885 16.4924 15.87 15.99 15.87C14.2337 15.87 12.9597 16.1063 11.7287 16.3347L11.7 16.34L11.6917 16.3415C10.2511 16.6091 8.86546 16.8664 6.74024 16.6936C6.59796 14.4671 4.91611 12.6538 2.75 12.3091V8.18616C4.44713 7.89455 5.96856 6.63616 6.50671 5.08007C8.88044 5.28558 10.4277 4.99733 11.9363 4.71627L11.97 4.71001L11.9978 4.70477C13.1592 4.48637 14.363 4.25999 15.99 4.25999C16.6363 4.25999 17.2267 4.28647 17.7627 4.33089C17.9171 6.35057 19.4594 8.20356 21.24 8.62881ZM21.24 14.3443C20.2164 14.5724 19.3464 15.241 19.0017 16.0681C19.2769 16.1065 19.5465 16.1505 19.8101 16.2C20.1601 16.27 20.56 16.15 20.86 15.9C21 15.78 21.24 15.54 21.24 15.19V14.3443ZM2.75 15.44V13.8376C4.0255 14.1408 5.01397 15.1995 5.21322 16.5114C4.62921 16.4215 3.9949 16.3028 3.30005 16.15C2.98005 16.08 2.75 15.78 2.75 15.44ZM4.95013 4.88934C4.55207 5.6768 3.72947 6.39799 2.75 6.65268V5.42C2.75 5.11 2.93003 4.92 3.03003 4.83C3.19003 4.71 3.37995 4.64 3.56995 4.64L3.55005 4.64999C3.60237 4.64999 3.64702 4.6576 3.69738 4.66618L3.71997 4.67C4.15142 4.75608 4.56073 4.82871 4.95013 4.88934ZM21.24 7.05212C20.3489 6.67207 19.4992 5.6878 19.2959 4.52414C19.9577 4.63865 20.4902 4.7749 20.9 4.89999C21.15 4.96999 21.24 5.21999 21.24 5.42999V7.05212ZM8.75 10.5C8.75 12.29 10.21 13.75 12 13.75C13.79 13.75 15.25 12.29 15.25 10.5C15.25 8.71 13.79 7.25 12 7.25C10.21 7.25 8.75 8.71 8.75 10.5ZM10.25 10.5C10.25 9.54 11.04 8.75 12 8.75C12.96 8.75 13.75 9.54 13.75 10.5C13.75 11.46 12.96 12.25 12 12.25C11.04 12.25 10.25 11.46 10.25 10.5ZM4.87005 20.94C6.11005 21.16 7.15 21.25 8.07 21.25C9.64 21.25 10.8301 21 12.0001 20.75C13.1701 20.5 14.3801 20.25 16.0001 20.25C17.0101 20.25 17.9801 20.32 18.8801 20.47C19.2801 20.53 19.67 20.26 19.74 19.85C19.81 19.44 19.53 19.06 19.12 18.99C18.14 18.83 17.0901 18.75 16.0001 18.75C14.2201 18.75 12.93 19.02 11.69 19.28C9.90999 19.66 8.22006 20.01 5.13006 19.46C4.72006 19.39 4.33006 19.66 4.26006 20.07C4.19006 20.48 4.46005 20.87 4.87005 20.94Z" fill="currentColor"/>
</svg>