<svg xmlns="http://www.w3.org/2000/svg" viewBox="0 0 24 24" width="24" height="24" color="#f975e5" fill="#f975e5">
    <path d="M12.0001 1.25195C14.609 1.25195 17.0401 1.82962 19.0431 2.82617C19.9635 3.28414 20.6145 3.59365 21.1886 4.5205C21.7721 5.46254 21.7501 6.40259 21.7501 7.75V11.2393C21.75 17.3759 16.8468 20.7254 14.17 22.1026C13.4327 22.482 12.9236 22.752 12.0001 22.752C11.0766 22.752 10.5675 22.482 9.83019 22.1026C7.15344 20.7254 2.25024 17.3758 2.25011 11.2393V7.75C2.25011 6.40261 2.22818 5.46252 2.81163 4.5205C3.38573 3.59364 4.03671 3.28412 4.95714 2.82617C6.96009 1.82961 9.3912 1.25197 12.0001 1.25195ZM12.0001 2.75195C9.60729 2.75197 7.40678 3.28248 5.62511 4.16894C4.69001 4.6342 4.41203 4.78583 4.08702 5.31054C3.77139 5.82018 3.75011 6.2863 3.75011 7.75V11.2393C3.75024 16.4692 7.93214 19.4388 10.5167 20.7686C11.2463 21.144 11.4708 21.252 12.0001 21.252C12.5294 21.252 12.7539 21.144 13.4835 20.7686C16.0681 19.4389 20.25 16.4693 20.2501 11.2393V7.75C20.2501 6.28626 20.2288 5.8202 19.9132 5.31054C19.5882 4.78585 19.3102 4.63422 18.3751 4.16894C16.5934 3.28249 14.3929 2.75195 12.0001 2.75195ZM12.0001 5.75195C13.5189 5.75195 14.7501 6.98317 14.7501 8.50195V9.38281C15.6235 9.69194 16.2501 10.5227 16.2501 11.502V13.002C16.2501 14.2446 15.2427 15.252 14.0001 15.252H10.0001C8.75747 15.252 7.75011 14.2446 7.75011 13.002V11.502C7.75011 10.5227 8.37668 9.69194 9.25011 9.38281V8.50195C9.25011 6.98317 10.4813 5.75195 12.0001 5.75195ZM10.0001 10.752C9.5859 10.752 9.25011 11.0878 9.25011 11.502V13.002C9.25011 13.4162 9.5859 13.752 10.0001 13.752H14.0001C14.4143 13.752 14.7501 13.4162 14.7501 13.002V11.502C14.7501 11.0878 14.4143 10.752 14.0001 10.752H10.0001ZM12.0001 7.25195C11.3097 7.25195 10.7501 7.81159 10.7501 8.50195V9.25195H13.2501V8.50195C13.2501 7.81159 12.6905 7.25195 12.0001 7.25195Z" fill="currentColor"/>
</svg>