<svg xmlns="http://www.w3.org/2000/svg" viewBox="0 0 24 24" width="24" height="24" color="#000000" fill="none">
    <defs />
    <path fill="currentColor" d="M3.25,12 C3.25,11.586 3.586,11.25 4,11.25 L20,11.25 C20.414,11.25 20.75,11.586 20.75,12 C20.75,12.414 20.414,12.75 20,12.75 L4,12.75 C3.586,12.75 3.25,12.414 3.25,12 Z M3.25,5 C3.25,4.586 3.586,4.25 4,4.25 L16,4.25 C16.414,4.25 16.75,4.586 16.75,5 C16.75,5.414 16.414,5.75 16,5.75 L4,5.75 C3.586,5.75 3.25,5.414 3.25,5 Z M4,18.25 L12,18.25 C12.414,18.25 12.75,18.586 12.75,19 C12.75,19.414 12.414,19.75 12,19.75 L4,19.75 C3.586,19.75 3.25,19.414 3.25,19 C3.25,18.586 3.586,18.25 4,18.25 Z" />
</svg>