<svg xmlns="http://www.w3.org/2000/svg" viewBox="0 0 24 24" width="24" height="24" color="#5cf9ed" fill="#5cf9ed">
    <defs />
    <path fill="currentColor" d="M10.215,1.759 C10.811,1.462 11.432,1.25 12,1.25 C12.568,1.25 13.188,1.462 13.785,1.759 C14.396,2.064 15.052,2.494 15.71,3.007 C17.025,4.034 18.401,5.438 19.504,6.972 C20.6,8.496 21.472,10.212 21.694,11.859 C21.923,13.554 21.458,15.198 19.875,16.374 C18.264,17.569 16.409,17.692 14.976,17.333 C14.799,17.288 14.647,17.25 14.516,17.219 C14.573,17.393 14.648,17.59 14.738,17.802 C14.972,18.352 15.255,18.893 15.429,19.226 C15.473,19.31 15.511,19.382 15.538,19.436 L15.56,19.479 C15.768,19.89 15.957,20.263 16.065,20.569 C16.17,20.864 16.293,21.347 16.009,21.798 C15.8,22.131 15.449,22.301 15.197,22.396 C14.915,22.502 14.584,22.575 14.243,22.626 C13.558,22.73 12.726,22.763 11.919,22.746 C11.111,22.728 10.297,22.659 9.646,22.548 C9.323,22.492 9.017,22.423 8.764,22.335 C8.638,22.292 8.506,22.237 8.384,22.166 C8.274,22.101 8.109,21.987 7.99,21.798 C7.706,21.347 7.83,20.864 7.934,20.569 C8.042,20.263 8.231,19.89 8.439,19.479 L8.461,19.436 C8.489,19.382 8.526,19.31 8.57,19.226 C8.745,18.893 9.028,18.352 9.261,17.802 C9.351,17.59 9.427,17.393 9.483,17.219 C9.352,17.25 9.2,17.288 9.023,17.333 C7.59,17.692 5.735,17.569 4.124,16.374 C2.541,15.198 2.076,13.554 2.305,11.859 C2.527,10.212 3.4,8.496 4.495,6.972 C5.598,5.438 6.974,4.034 8.289,3.007 C8.947,2.494 9.603,2.064 10.215,1.759 Z M3.791,12.06 C3.622,13.316 3.951,14.377 5.018,15.169 C6.205,16.05 7.579,16.149 8.658,15.878 L8.691,15.87 C9.09,15.769 9.436,15.683 9.695,15.64 C9.828,15.618 9.985,15.599 10.14,15.608 C10.281,15.617 10.561,15.657 10.785,15.89 C11.016,16.13 11.075,16.424 11.088,16.625 C11.102,16.833 11.073,17.043 11.033,17.228 C10.955,17.6 10.801,18.013 10.642,18.388 C10.38,19.005 10.052,19.63 9.884,19.95 C9.847,20.021 9.818,20.077 9.799,20.114 C9.602,20.504 9.47,20.766 9.39,20.96 C9.523,20.997 9.693,21.034 9.899,21.069 C10.46,21.165 11.198,21.229 11.952,21.246 C12.708,21.262 13.448,21.23 14.019,21.143 C14.28,21.104 14.483,21.056 14.628,21.006 C14.551,20.809 14.414,20.537 14.2,20.114 C14.181,20.077 14.152,20.021 14.115,19.95 C13.947,19.63 13.619,19.005 13.357,18.388 C13.198,18.013 13.045,17.6 12.966,17.228 C12.927,17.043 12.898,16.833 12.911,16.625 C12.924,16.424 12.983,16.13 13.214,15.89 C13.438,15.657 13.718,15.617 13.859,15.608 C14.014,15.599 14.172,15.618 14.304,15.64 C14.564,15.683 14.909,15.769 15.308,15.87 L15.341,15.878 C16.421,16.149 17.794,16.05 18.981,15.169 C20.048,14.377 20.378,13.316 20.208,12.06 C20.032,10.757 19.312,9.275 18.286,7.848 C17.267,6.431 15.991,5.13 14.787,4.19 C14.185,3.72 13.614,3.35 13.116,3.102 C12.602,2.846 12.227,2.75 12,2.75 C11.772,2.75 11.398,2.846 10.884,3.102 C10.385,3.35 9.814,3.72 9.212,4.19 C8.008,5.13 6.732,6.431 5.713,7.848 C4.687,9.275 3.967,10.757 3.791,12.06 Z M9.141,20.871 L9.143,20.871 C9.137,20.868 9.136,20.868 9.141,20.871 Z M9.315,21.184 C9.314,21.188 9.314,21.19 9.314,21.19 Z M14.685,21.19 L14.684,21.184 C14.684,21.188 14.685,21.19 14.685,21.19 Z" />
</svg>