<svg xmlns="http://www.w3.org/2000/svg" viewBox="0 0 24 24" width="24" height="24" color="#5cf9ed" fill="#5cf9ed">
    <defs />
    <path fill="currentColor" d="M1.25,12 C1.25,6.063 6.063,1.25 12,1.25 C17.937,1.25 22.75,6.063 22.75,12 C22.75,17.937 17.937,22.75 12,22.75 C6.063,22.75 1.25,17.937 1.25,12 Z M12,2.75 C9.721,2.75 7.634,3.574 6.022,4.941 C9.651,8.708 9.668,15.277 6.022,19.059 C7.634,20.426 9.721,21.25 12,21.25 C14.279,21.25 16.366,20.426 17.978,19.059 C14.332,15.277 14.349,8.708 17.978,4.941 C16.366,3.574 14.279,2.75 12,2.75 Z M2.75,12 C2.75,14.289 3.582,16.385 4.96,18 C8.02,14.802 8.007,9.186 4.96,6 C3.582,7.615 2.75,9.711 2.75,12 Z M19.04,6 C15.993,9.186 15.98,14.802 19.041,18 C20.418,16.385 21.25,14.289 21.25,12 C21.25,9.711 20.418,7.615 19.04,6 Z" />
</svg>