<svg xmlns="http://www.w3.org/2000/svg" viewBox="0 0 24 24" width="24" height="24" color="#c706fd" fill="#c706fd">
    <defs />
    <path fill="currentColor" d="M13.894,1.35 C14.941,1.564 15.823,2.205 16.856,3.151 C17.386,3.637 17.298,4.404 16.88,4.822 C16.325,5.377 16.309,6.364 16.973,7.027 C17.636,7.691 18.623,7.675 19.178,7.12 C19.596,6.702 20.363,6.614 20.849,7.144 C21.795,8.177 22.436,9.059 22.649,10.106 C22.764,10.67 22.781,11.246 22.698,11.81 C22.575,12.635 22.181,13.338 21.594,14.072 C21.024,14.785 20.219,15.59 19.206,16.603 L16.603,19.206 L16.603,19.206 C15.59,20.219 14.785,21.024 14.072,21.594 C13.338,22.181 12.635,22.575 11.81,22.698 C11.246,22.781 10.67,22.764 10.106,22.649 C9.059,22.436 8.177,21.796 7.144,20.849 C6.614,20.363 6.703,19.596 7.12,19.178 C7.676,18.623 7.691,17.636 7.027,16.973 C6.364,16.309 5.377,16.324 4.822,16.88 C4.404,17.297 3.637,17.386 3.151,16.856 C2.204,15.823 1.564,14.941 1.35,13.894 C1.236,13.33 1.219,12.754 1.302,12.19 C1.425,11.365 1.82,10.662 2.406,9.928 C2.976,9.215 3.781,8.41 4.794,7.397 L4.794,7.397 L7.397,4.794 L7.397,4.794 C8.41,3.781 9.215,2.976 9.928,2.406 C10.662,1.82 11.365,1.425 12.19,1.302 C12.754,1.219 13.33,1.236 13.894,1.35 Z M8.626,5.686 C8.56,5.752 8.493,5.819 8.425,5.887 L5.887,8.425 C4.834,9.478 4.089,10.224 3.578,10.865 C3.076,11.493 2.854,11.952 2.786,12.411 C2.729,12.798 2.74,13.198 2.82,13.594 C2.936,14.161 3.271,14.73 4.025,15.585 C5.228,14.641 6.981,14.804 8.088,15.912 C9.196,17.019 9.359,18.772 8.415,19.975 C9.27,20.729 9.839,21.064 10.406,21.18 C10.802,21.26 11.202,21.271 11.589,21.214 C12.048,21.146 12.507,20.924 13.135,20.423 C13.776,19.911 14.522,19.166 15.575,18.113 L18.113,15.575 C18.181,15.507 18.248,15.44 18.314,15.374 Z M12.411,2.786 C11.952,2.854 11.493,3.076 10.865,3.578 C10.516,3.856 10.136,4.204 9.693,4.632 L19.368,14.307 C19.796,13.864 20.144,13.484 20.423,13.135 C20.924,12.507 21.146,12.048 21.214,11.589 C21.271,11.202 21.26,10.802 21.18,10.406 C21.064,9.839 20.729,9.27 19.975,8.415 C18.772,9.358 17.02,9.195 15.912,8.088 C14.805,6.98 14.642,5.228 15.585,4.025 C14.73,3.271 14.161,2.936 13.594,2.82 C13.198,2.74 12.798,2.729 12.411,2.786 Z" />
</svg>