<svg xmlns="http://www.w3.org/2000/svg" viewBox="0 0 24 24" width="24" height="24" color="#f975e5" fill="#f975e5">
    <defs/>
    <path fill="currentColor" d="M3.25,17 C3.25,16.586 3.586,16.25 4,16.25 L18.537,16.25 C18.372,16.092 18.193,15.93 18.008,15.77 C17.646,15.456 17.282,15.163 17.007,14.949 C16.87,14.842 16.756,14.755 16.677,14.695 C16.637,14.665 16.606,14.642 16.586,14.626 L16.562,14.609 L16.555,14.604 C16.222,14.358 16.15,13.889 16.396,13.555 C16.642,13.222 17.111,13.151 17.445,13.396 L17.448,13.398 L17.455,13.404 L17.482,13.424 C17.505,13.441 17.539,13.466 17.581,13.498 C17.666,13.562 17.786,13.654 17.93,13.766 C18.218,13.991 18.604,14.3 18.992,14.637 C19.376,14.971 19.78,15.346 20.093,15.701 C20.249,15.878 20.399,16.067 20.513,16.257 C20.616,16.426 20.75,16.692 20.75,17 C20.75,17.308 20.616,17.574 20.513,17.743 C20.399,17.933 20.249,18.122 20.093,18.299 C19.78,18.654 19.376,19.029 18.992,19.363 C18.604,19.7 18.218,20.009 17.93,20.234 C17.786,20.346 17.666,20.438 17.581,20.502 C17.539,20.533 17.471,20.584 17.446,20.603 L17.445,20.604 C17.111,20.85 16.642,20.778 16.396,20.445 C16.15,20.111 16.222,19.642 16.555,19.396 L16.557,19.395 L16.562,19.391 L16.586,19.374 C16.606,19.358 16.637,19.335 16.677,19.305 C16.756,19.245 16.87,19.158 17.007,19.051 C17.282,18.837 17.646,18.544 18.008,18.23 C18.193,18.07 18.373,17.908 18.537,17.75 L4,17.75 C3.586,17.75 3.25,17.414 3.25,17 Z M20.75,7 C20.75,7.414 20.414,7.75 20,7.75 L5.463,7.75 C5.627,7.908 5.807,8.07 5.992,8.23 C6.354,8.544 6.718,8.837 6.993,9.051 C7.13,9.158 7.244,9.245 7.323,9.305 C7.363,9.335 7.394,9.358 7.414,9.374 L7.438,9.391 L7.445,9.396 C7.778,9.642 7.849,10.111 7.604,10.445 C7.358,10.778 6.889,10.849 6.555,10.604 L6.552,10.602 L6.545,10.596 L6.518,10.576 C6.495,10.559 6.461,10.534 6.419,10.502 C6.334,10.438 6.214,10.346 6.07,10.234 C5.782,10.009 5.396,9.7 5.008,9.363 C4.624,9.029 4.22,8.654 3.907,8.299 C3.751,8.122 3.601,7.933 3.487,7.743 C3.384,7.574 3.25,7.308 3.25,7 C3.25,6.692 3.384,6.426 3.487,6.257 C3.601,6.067 3.751,5.878 3.907,5.701 C4.22,5.346 4.624,4.971 5.008,4.637 C5.396,4.3 5.782,3.991 6.07,3.766 C6.214,3.654 6.334,3.562 6.419,3.498 C6.46,3.467 6.529,3.416 6.554,3.397 L6.554,3.397 L6.555,3.396 C6.889,3.151 7.358,3.222 7.604,3.555 C7.85,3.889 7.778,4.358 7.445,4.604 L7.443,4.605 L7.438,4.609 L7.414,4.626 C7.394,4.642 7.363,4.665 7.323,4.695 C7.244,4.755 7.13,4.842 6.993,4.949 C6.718,5.163 6.354,5.456 5.992,5.77 C5.807,5.93 5.627,6.092 5.463,6.25 L20,6.25 C20.414,6.25 20.75,6.586 20.75,7 Z"/>
</svg>