<svg xmlns="http://www.w3.org/2000/svg" viewBox="0 0 24 24" width="24" height="24" color="#c706fd" fill="#c706fd">
    <path fill-rule="evenodd" clip-rule="evenodd" d="M16.4449 12.2519C16.3193 12.2503 16.1937 12.2433 16.0688 12.231C15.819 13.0551 15.3247 13.7749 14.6709 14.3052C16.786 15.2281 18.25 17.2117 18.25 19.5039C18.25 19.9139 17.91 20.2539 17.5 20.2539C17.09 20.2539 16.75 19.9139 16.75 19.5039C16.75 17.1639 14.62 15.2539 12 15.2539C9.38 15.2539 7.25 17.1639 7.25 19.5039C7.25 19.9139 6.91 20.2539 6.5 20.2539C6.09 20.2539 5.75 19.9139 5.75 19.5039C5.75 17.2117 7.21396 15.2281 9.32906 14.3052C8.67845 13.7775 8.18571 13.062 7.93482 12.2428C7.79195 12.2569 7.64715 12.2639 7.5 12.2639V12.2539C4.88 12.2539 2.75 14.1639 2.75 16.5039C2.75 16.9139 2.41 17.2539 2 17.2539C1.59 17.2539 1.25 16.9139 1.25 16.5039C1.25 14.2117 2.71396 12.2281 4.82906 11.3052C3.86691 10.5248 3.25 9.33378 3.25 8.00391C3.25 5.66391 5.16 3.75391 7.5 3.75391C9.41086 3.75391 11.04 5.00247 11.5704 6.77554C11.7117 6.76124 11.855 6.75391 12 6.75391C12.144 6.75391 12.2864 6.76114 12.4268 6.77526C12.9527 5.00241 14.5775 3.74219 16.5002 3.74219C18.8402 3.74219 20.7502 5.65219 20.7502 7.99219C20.7502 9.32642 20.1292 10.5209 19.1616 11.3011C21.2817 12.2223 22.75 14.2084 22.75 16.5039C22.75 16.9139 22.41 17.2539 22 17.2539C21.59 17.2539 21.25 16.9139 21.25 16.5039C21.25 14.1639 19.12 12.2539 16.5 12.2539C16.4815 12.2539 16.4631 12.2532 16.4449 12.2519ZM7.60761 10.7618C7.57242 10.7566 7.53649 10.7539 7.5 10.7539C7.43319 10.7539 7.36662 10.7549 7.30032 10.7568C5.87372 10.6547 4.75 9.46676 4.75 8.01392C4.75 6.49392 5.98 5.26392 7.5 5.26392C8.73026 5.26392 9.78036 6.05956 10.1301 7.18913C8.79396 7.84803 7.84971 9.18895 7.75743 10.7518C7.70757 10.7565 7.65761 10.7598 7.60761 10.7618ZM14.7275 11.3578C14.5541 12.7103 13.4001 13.7539 12 13.7539C10.6004 13.7539 9.44664 12.711 9.27268 11.3591C9.27229 11.312 9.26752 11.2644 9.25809 11.2167C9.25273 11.1465 9.25 11.0755 9.25 11.0039C9.25 9.78695 10.0384 8.75589 11.1329 8.39313C11.1805 8.38366 11.2264 8.36966 11.27 8.35164C11.5025 8.28792 11.7472 8.25391 12 8.25391C13.52 8.25391 14.75 9.48391 14.75 11.0039C14.75 11.0698 14.7477 11.1351 14.7432 11.1998C14.7323 11.2526 14.7272 11.3056 14.7275 11.3578ZM16.2419 10.7404C16.3264 10.7483 16.4123 10.7522 16.5002 10.7522C18.0202 10.7522 19.2502 9.5222 19.2502 8.0022C19.2502 6.4822 18.0202 5.2522 16.5002 5.2522C15.2662 5.2522 14.2135 6.05266 13.867 7.18767C15.2014 7.84445 16.1456 9.18128 16.2419 10.7404Z" fill="currentColor" />
</svg>