<svg xmlns="http://www.w3.org/2000/svg" viewBox="0 0 24 24" width="24" height="24" color="#5bf9ed" fill="#5bf9ed">
    <path fill-rule="evenodd" clip-rule="evenodd" d="M12 14.25C8.55 14.25 5.75 17.05 5.75 20.5C5.75 20.91 5.41 21.25 5 21.25C4.59 21.25 4.25 20.91 4.25 20.5C4.25 17.3105 6.19168 14.5617 8.95394 13.3749C7.33129 12.3571 6.25 10.5522 6.25 8.5C6.25 5.33 8.83 2.75 12 2.75C15.17 2.75 17.75 5.33 17.75 8.5C17.75 10.5522 16.6687 12.3571 15.0461 13.3749C17.8083 14.5617 19.75 17.3105 19.75 20.5C19.75 20.91 19.41 21.25 19 21.25C18.59 21.25 18.25 20.91 18.25 20.5C18.25 17.05 15.45 14.25 12 14.25ZM12 12.75C9.66 12.75 7.75 10.84 7.75 8.5C7.75 6.16 9.66 4.25 12 4.25C14.34 4.25 16.25 6.16 16.25 8.5C16.25 10.84 14.34 12.75 12 12.75Z" fill="currentColor"/>
</svg>